G75*
%MOIN*%
%OFA0B0*%
%FSLAX25Y25*%
%IPPOS*%
%LPD*%
%AMOC8*
5,1,8,0,0,1.08239X$1,22.5*
%
%ADD10C,0.00300*%
%ADD11C,0.00400*%
%ADD12C,0.00750*%
D10*
X0006150Y0012400D02*
X0009052Y0012400D01*
X0009052Y0013851D01*
X0008569Y0014335D01*
X0007601Y0014335D01*
X0007117Y0013851D01*
X0007117Y0012400D01*
X0007117Y0013367D02*
X0006150Y0014335D01*
X0006150Y0015347D02*
X0009052Y0017281D01*
X0008569Y0018293D02*
X0006634Y0018293D01*
X0008569Y0020228D01*
X0006634Y0020228D01*
X0006150Y0019744D01*
X0006150Y0018777D01*
X0006634Y0018293D01*
X0006150Y0017281D02*
X0009052Y0015347D01*
X0008569Y0018293D02*
X0009052Y0018777D01*
X0009052Y0019744D01*
X0008569Y0020228D01*
X0015525Y0019744D02*
X0015525Y0018777D01*
X0016009Y0018293D01*
X0017944Y0020228D01*
X0016009Y0020228D01*
X0015525Y0019744D01*
X0017944Y0020228D02*
X0018427Y0019744D01*
X0018427Y0018777D01*
X0017944Y0018293D01*
X0016009Y0018293D01*
X0015525Y0017281D02*
X0018427Y0015347D01*
X0018427Y0017281D02*
X0015525Y0015347D01*
X0018427Y0014335D02*
X0018427Y0012400D01*
X0018427Y0013367D02*
X0015525Y0013367D01*
X0026150Y0012400D02*
X0029052Y0012400D01*
X0029052Y0013851D01*
X0028569Y0014335D01*
X0027601Y0014335D01*
X0027117Y0013851D01*
X0027117Y0012400D01*
X0027117Y0013367D02*
X0026150Y0014335D01*
X0026150Y0015347D02*
X0029052Y0017281D01*
X0028085Y0018293D02*
X0029052Y0019261D01*
X0026150Y0019261D01*
X0026150Y0020228D02*
X0026150Y0018293D01*
X0026150Y0017281D02*
X0029052Y0015347D01*
X0036150Y0015347D02*
X0039052Y0017281D01*
X0038085Y0018293D02*
X0039052Y0019261D01*
X0036150Y0019261D01*
X0036150Y0020228D02*
X0036150Y0018293D01*
X0036150Y0017281D02*
X0039052Y0015347D01*
X0039052Y0014335D02*
X0039052Y0012400D01*
X0039052Y0013367D02*
X0036150Y0013367D01*
X0046150Y0012400D02*
X0049052Y0012400D01*
X0049052Y0013851D01*
X0048569Y0014335D01*
X0047601Y0014335D01*
X0047117Y0013851D01*
X0047117Y0012400D01*
X0046150Y0015347D02*
X0047117Y0016314D01*
X0046150Y0017281D01*
X0049052Y0017281D01*
X0049052Y0018293D02*
X0046150Y0018293D01*
X0048085Y0019261D02*
X0049052Y0020228D01*
X0046150Y0020228D01*
X0048085Y0019261D02*
X0049052Y0018293D01*
X0049052Y0015347D02*
X0046150Y0015347D01*
X0056150Y0015347D02*
X0057117Y0016314D01*
X0056150Y0017281D01*
X0059052Y0017281D01*
X0059052Y0018293D02*
X0058085Y0019261D01*
X0059052Y0020228D01*
X0056150Y0020228D01*
X0056150Y0021240D02*
X0058085Y0023175D01*
X0058569Y0023175D01*
X0059052Y0022691D01*
X0059052Y0021723D01*
X0058569Y0021240D01*
X0056150Y0021240D02*
X0056150Y0023175D01*
X0049052Y0022207D02*
X0048085Y0021240D01*
X0049052Y0022207D02*
X0046150Y0022207D01*
X0046150Y0021240D02*
X0046150Y0023175D01*
X0056150Y0018293D02*
X0059052Y0018293D01*
X0059052Y0015347D02*
X0056150Y0015347D01*
X0057601Y0014335D02*
X0057117Y0013851D01*
X0057117Y0012400D01*
X0056150Y0012400D02*
X0059052Y0012400D01*
X0059052Y0013851D01*
X0058569Y0014335D01*
X0057601Y0014335D01*
X0065525Y0015347D02*
X0066492Y0016314D01*
X0065525Y0017281D01*
X0068427Y0017281D01*
X0068427Y0018293D02*
X0067460Y0019261D01*
X0068427Y0020228D01*
X0065525Y0020228D01*
X0066009Y0021240D02*
X0065525Y0021723D01*
X0065525Y0022691D01*
X0066009Y0023175D01*
X0066492Y0023175D01*
X0066976Y0022691D01*
X0066976Y0022207D01*
X0066976Y0022691D02*
X0067460Y0023175D01*
X0067944Y0023175D01*
X0068427Y0022691D01*
X0068427Y0021723D01*
X0067944Y0021240D01*
X0068427Y0018293D02*
X0065525Y0018293D01*
X0065525Y0015347D02*
X0068427Y0015347D01*
X0067944Y0014335D02*
X0066976Y0014335D01*
X0066492Y0013851D01*
X0066492Y0012400D01*
X0065525Y0012400D02*
X0068427Y0012400D01*
X0068427Y0013851D01*
X0067944Y0014335D01*
X0076150Y0015347D02*
X0077117Y0016314D01*
X0076150Y0017281D01*
X0079052Y0017281D01*
X0079052Y0018293D02*
X0076150Y0018293D01*
X0078085Y0019261D02*
X0079052Y0020228D01*
X0076150Y0020228D01*
X0078085Y0019261D02*
X0079052Y0018293D01*
X0079052Y0015347D02*
X0076150Y0015347D01*
X0077601Y0014335D02*
X0077117Y0013851D01*
X0077117Y0012400D01*
X0076150Y0012400D02*
X0079052Y0012400D01*
X0079052Y0013851D01*
X0078569Y0014335D01*
X0077601Y0014335D01*
X0086150Y0013851D02*
X0086150Y0012884D01*
X0086634Y0012400D01*
X0087601Y0012884D02*
X0087601Y0013851D01*
X0087117Y0014335D01*
X0086634Y0014335D01*
X0086150Y0013851D01*
X0087601Y0012884D02*
X0088085Y0012400D01*
X0088569Y0012400D01*
X0089052Y0012884D01*
X0089052Y0013851D01*
X0088569Y0014335D01*
X0088569Y0015347D02*
X0086634Y0015347D01*
X0086150Y0015830D01*
X0086150Y0016798D01*
X0086634Y0017281D01*
X0086150Y0018293D02*
X0086150Y0020228D01*
X0086150Y0018293D02*
X0089052Y0018293D01*
X0088569Y0017281D02*
X0089052Y0016798D01*
X0089052Y0015830D01*
X0088569Y0015347D01*
X0095525Y0015347D02*
X0095525Y0016798D01*
X0096009Y0017281D01*
X0097944Y0017281D01*
X0098427Y0016798D01*
X0098427Y0015347D01*
X0095525Y0015347D01*
X0096009Y0014335D02*
X0095525Y0013851D01*
X0095525Y0012884D01*
X0096009Y0012400D01*
X0096976Y0012884D02*
X0097460Y0012400D01*
X0097944Y0012400D01*
X0098427Y0012884D01*
X0098427Y0013851D01*
X0097944Y0014335D01*
X0096976Y0013851D02*
X0096976Y0012884D01*
X0096976Y0013851D02*
X0096492Y0014335D01*
X0096009Y0014335D01*
X0095525Y0018293D02*
X0097460Y0018293D01*
X0098427Y0019261D01*
X0097460Y0020228D01*
X0095525Y0020228D01*
X0096976Y0020228D02*
X0096976Y0018293D01*
X0105525Y0018293D02*
X0105525Y0020228D01*
X0105525Y0019261D02*
X0108427Y0019261D01*
X0107460Y0018293D01*
X0107944Y0017281D02*
X0106009Y0017281D01*
X0105525Y0016798D01*
X0105525Y0015347D01*
X0108427Y0015347D01*
X0108427Y0016798D01*
X0107944Y0017281D01*
X0107944Y0014335D02*
X0108427Y0013851D01*
X0108427Y0012884D01*
X0107944Y0012400D01*
X0106009Y0012400D01*
X0105525Y0012884D01*
X0105525Y0013851D01*
X0106009Y0014335D01*
X0106976Y0014335D01*
X0106976Y0013367D01*
X0115525Y0012884D02*
X0116009Y0012400D01*
X0117944Y0012400D01*
X0118427Y0012884D01*
X0118427Y0013851D01*
X0117944Y0014335D01*
X0116976Y0014335D02*
X0116976Y0013367D01*
X0116976Y0014335D02*
X0116009Y0014335D01*
X0115525Y0013851D01*
X0115525Y0012884D01*
X0115525Y0015347D02*
X0115525Y0016798D01*
X0116009Y0017281D01*
X0117944Y0017281D01*
X0118427Y0016798D01*
X0118427Y0015347D01*
X0115525Y0015347D01*
X0115525Y0018293D02*
X0117460Y0020228D01*
X0117944Y0020228D01*
X0118427Y0019744D01*
X0118427Y0018777D01*
X0117944Y0018293D01*
X0115525Y0018293D02*
X0115525Y0020228D01*
X0125525Y0019744D02*
X0125525Y0018777D01*
X0126009Y0018293D01*
X0126009Y0017281D02*
X0127944Y0017281D01*
X0128427Y0016798D01*
X0128427Y0015347D01*
X0125525Y0015347D01*
X0125525Y0016798D01*
X0126009Y0017281D01*
X0127944Y0018293D02*
X0128427Y0018777D01*
X0128427Y0019744D01*
X0127944Y0020228D01*
X0127460Y0020228D01*
X0126976Y0019744D01*
X0126492Y0020228D01*
X0126009Y0020228D01*
X0125525Y0019744D01*
X0126976Y0019744D02*
X0126976Y0019261D01*
X0135525Y0019744D02*
X0138427Y0019744D01*
X0136976Y0018293D01*
X0136976Y0020228D01*
X0136009Y0017281D02*
X0137944Y0017281D01*
X0138427Y0016798D01*
X0138427Y0015347D01*
X0135525Y0015347D01*
X0135525Y0016798D01*
X0136009Y0017281D01*
X0136009Y0014335D02*
X0136976Y0014335D01*
X0136976Y0013367D01*
X0136009Y0012400D02*
X0135525Y0012884D01*
X0135525Y0013851D01*
X0136009Y0014335D01*
X0137944Y0014335D02*
X0138427Y0013851D01*
X0138427Y0012884D01*
X0137944Y0012400D01*
X0136009Y0012400D01*
X0128427Y0012884D02*
X0127944Y0012400D01*
X0126009Y0012400D01*
X0125525Y0012884D01*
X0125525Y0013851D01*
X0126009Y0014335D01*
X0126976Y0014335D01*
X0126976Y0013367D01*
X0127944Y0014335D02*
X0128427Y0013851D01*
X0128427Y0012884D01*
X0145525Y0012884D02*
X0145525Y0013851D01*
X0146009Y0014335D01*
X0146976Y0014335D01*
X0146976Y0013367D01*
X0146009Y0012400D02*
X0145525Y0012884D01*
X0146009Y0012400D02*
X0147944Y0012400D01*
X0148427Y0012884D01*
X0148427Y0013851D01*
X0147944Y0014335D01*
X0148427Y0015347D02*
X0145525Y0015347D01*
X0145525Y0016798D01*
X0146009Y0017281D01*
X0147944Y0017281D01*
X0148427Y0016798D01*
X0148427Y0015347D01*
X0148427Y0018293D02*
X0146976Y0018293D01*
X0147460Y0019261D01*
X0147460Y0019744D01*
X0146976Y0020228D01*
X0146009Y0020228D01*
X0145525Y0019744D01*
X0145525Y0018777D01*
X0146009Y0018293D01*
X0148427Y0018293D02*
X0148427Y0020228D01*
X0155525Y0019246D02*
X0158427Y0019246D01*
X0158427Y0017311D02*
X0155525Y0019246D01*
X0155525Y0017311D02*
X0158427Y0017311D01*
X0158427Y0016314D02*
X0158427Y0015347D01*
X0158427Y0015830D02*
X0155525Y0015830D01*
X0155525Y0015347D02*
X0155525Y0016314D01*
X0156492Y0014335D02*
X0158427Y0014335D01*
X0156492Y0014335D02*
X0155525Y0013367D01*
X0156492Y0012400D01*
X0158427Y0012400D01*
X0165525Y0012884D02*
X0166009Y0012400D01*
X0165525Y0012884D02*
X0165525Y0013851D01*
X0166009Y0014335D01*
X0166976Y0014335D01*
X0167460Y0013851D01*
X0167460Y0013367D01*
X0166976Y0012400D01*
X0168427Y0012400D01*
X0168427Y0014335D01*
X0168427Y0015347D02*
X0166492Y0015347D01*
X0165525Y0016314D01*
X0166492Y0017281D01*
X0168427Y0017281D01*
X0176150Y0017281D02*
X0179052Y0017281D01*
X0179052Y0018293D02*
X0179052Y0019744D01*
X0178569Y0020228D01*
X0176634Y0020228D01*
X0176150Y0019744D01*
X0176150Y0018293D01*
X0179052Y0018293D01*
X0179052Y0015347D02*
X0176150Y0017281D01*
X0176150Y0015347D02*
X0179052Y0015347D01*
X0178569Y0014335D02*
X0179052Y0013851D01*
X0179052Y0012884D01*
X0178569Y0012400D01*
X0176634Y0012400D01*
X0176150Y0012884D01*
X0176150Y0013851D01*
X0176634Y0014335D01*
X0177601Y0014335D01*
X0177601Y0013367D01*
X0177108Y0031150D02*
X0175873Y0031150D01*
X0175256Y0031767D01*
X0174042Y0031150D02*
X0171573Y0031150D01*
X0172807Y0031150D02*
X0172807Y0034853D01*
X0174042Y0033619D01*
X0175256Y0034236D02*
X0175873Y0034853D01*
X0177108Y0034853D01*
X0177725Y0034236D01*
X0177725Y0031767D01*
X0177108Y0031150D01*
X0154603Y0035286D02*
X0153369Y0034051D01*
X0154603Y0035286D02*
X0150900Y0035286D01*
X0150900Y0036520D02*
X0150900Y0034051D01*
X0150900Y0037734D02*
X0150900Y0040203D01*
X0150900Y0038969D02*
X0154603Y0038969D01*
X0153369Y0037734D01*
X0153369Y0041417D02*
X0154603Y0042652D01*
X0150900Y0042652D01*
X0150900Y0043886D02*
X0150900Y0041417D01*
X0150900Y0045101D02*
X0151517Y0045101D01*
X0153986Y0047569D01*
X0154603Y0047569D01*
X0154603Y0045101D01*
X0152752Y0048784D02*
X0152752Y0051252D01*
X0152752Y0052467D02*
X0153369Y0053701D01*
X0153369Y0054318D01*
X0152752Y0054936D01*
X0151517Y0054936D01*
X0150900Y0054318D01*
X0150900Y0053084D01*
X0151517Y0052467D01*
X0152752Y0052467D02*
X0154603Y0052467D01*
X0154603Y0054936D01*
X0156009Y0063650D02*
X0155525Y0064134D01*
X0155525Y0065101D01*
X0156009Y0065585D01*
X0156976Y0065585D01*
X0156976Y0064617D01*
X0156009Y0063650D02*
X0157944Y0063650D01*
X0158427Y0064134D01*
X0158427Y0065101D01*
X0157944Y0065585D01*
X0157460Y0066597D02*
X0155525Y0066597D01*
X0156976Y0066597D02*
X0156976Y0068531D01*
X0157460Y0068531D02*
X0155525Y0068531D01*
X0155525Y0069543D02*
X0156009Y0069543D01*
X0157944Y0071478D01*
X0158427Y0071478D01*
X0158427Y0069543D01*
X0157460Y0068531D02*
X0158427Y0067564D01*
X0157460Y0066597D01*
X0166150Y0066597D02*
X0168085Y0066597D01*
X0169052Y0067564D01*
X0168085Y0068531D01*
X0166150Y0068531D01*
X0166634Y0069543D02*
X0167117Y0069543D01*
X0167601Y0070027D01*
X0167601Y0070994D01*
X0167117Y0071478D01*
X0166634Y0071478D01*
X0166150Y0070994D01*
X0166150Y0070027D01*
X0166634Y0069543D01*
X0167601Y0070027D02*
X0168085Y0069543D01*
X0168569Y0069543D01*
X0169052Y0070027D01*
X0169052Y0070994D01*
X0168569Y0071478D01*
X0168085Y0071478D01*
X0167601Y0070994D01*
X0167601Y0068531D02*
X0167601Y0066597D01*
X0167601Y0065585D02*
X0167601Y0064617D01*
X0167601Y0065585D02*
X0166634Y0065585D01*
X0166150Y0065101D01*
X0166150Y0064134D01*
X0166634Y0063650D01*
X0168569Y0063650D01*
X0169052Y0064134D01*
X0169052Y0065101D01*
X0168569Y0065585D01*
X0176150Y0065972D02*
X0176150Y0066455D01*
X0176634Y0066455D01*
X0176634Y0065972D01*
X0176150Y0065972D01*
X0176634Y0067445D02*
X0176150Y0067929D01*
X0176150Y0068896D01*
X0176634Y0069380D01*
X0177117Y0069380D01*
X0177601Y0068896D01*
X0177601Y0068412D01*
X0177601Y0068896D02*
X0178085Y0069380D01*
X0178569Y0069380D01*
X0179052Y0068896D01*
X0179052Y0067929D01*
X0178569Y0067445D01*
X0178569Y0064960D02*
X0178085Y0064960D01*
X0177601Y0064476D01*
X0177117Y0064960D01*
X0176634Y0064960D01*
X0176150Y0064476D01*
X0176150Y0063509D01*
X0176634Y0063025D01*
X0177601Y0063992D02*
X0177601Y0064476D01*
X0178569Y0064960D02*
X0179052Y0064476D01*
X0179052Y0063509D01*
X0178569Y0063025D01*
X0178085Y0070391D02*
X0176150Y0071359D01*
X0178085Y0072326D01*
X0148427Y0071478D02*
X0147944Y0070511D01*
X0146976Y0069543D01*
X0146976Y0070994D01*
X0146492Y0071478D01*
X0146009Y0071478D01*
X0145525Y0070994D01*
X0145525Y0070027D01*
X0146009Y0069543D01*
X0146976Y0069543D01*
X0146976Y0068531D02*
X0146976Y0066597D01*
X0147460Y0066597D02*
X0148427Y0067564D01*
X0147460Y0068531D01*
X0145525Y0068531D01*
X0145525Y0066597D02*
X0147460Y0066597D01*
X0147944Y0065585D02*
X0148427Y0065101D01*
X0148427Y0064134D01*
X0147944Y0063650D01*
X0146009Y0063650D01*
X0145525Y0064134D01*
X0145525Y0065101D01*
X0146009Y0065585D01*
X0146976Y0065585D01*
X0146976Y0064617D01*
X0138427Y0064134D02*
X0137944Y0063650D01*
X0136009Y0063650D01*
X0135525Y0064134D01*
X0135525Y0065101D01*
X0136009Y0065585D01*
X0136976Y0065585D01*
X0136976Y0064617D01*
X0137944Y0065585D02*
X0138427Y0065101D01*
X0138427Y0064134D01*
X0137460Y0066597D02*
X0135525Y0066597D01*
X0136976Y0066597D02*
X0136976Y0068531D01*
X0137460Y0068531D02*
X0135525Y0068531D01*
X0136009Y0069543D02*
X0135525Y0070027D01*
X0135525Y0070994D01*
X0136009Y0071478D01*
X0136976Y0071478D01*
X0137460Y0070994D01*
X0137460Y0070511D01*
X0136976Y0069543D01*
X0138427Y0069543D01*
X0138427Y0071478D01*
X0137460Y0068531D02*
X0138427Y0067564D01*
X0137460Y0066597D01*
X0128427Y0067564D02*
X0127460Y0066597D01*
X0125525Y0066597D01*
X0126009Y0065585D02*
X0126976Y0065585D01*
X0126976Y0064617D01*
X0126009Y0063650D02*
X0125525Y0064134D01*
X0125525Y0065101D01*
X0126009Y0065585D01*
X0126976Y0066597D02*
X0126976Y0068531D01*
X0127460Y0068531D02*
X0125525Y0068531D01*
X0126976Y0069543D02*
X0126976Y0071478D01*
X0125525Y0070994D02*
X0128427Y0070994D01*
X0126976Y0069543D01*
X0127460Y0068531D02*
X0128427Y0067564D01*
X0127944Y0065585D02*
X0128427Y0065101D01*
X0128427Y0064134D01*
X0127944Y0063650D01*
X0126009Y0063650D01*
X0118427Y0064134D02*
X0117944Y0063650D01*
X0116009Y0063650D01*
X0115525Y0064134D01*
X0115525Y0065101D01*
X0116009Y0065585D01*
X0116976Y0065585D01*
X0116976Y0064617D01*
X0117944Y0065585D02*
X0118427Y0065101D01*
X0118427Y0064134D01*
X0117460Y0066597D02*
X0115525Y0066597D01*
X0116976Y0066597D02*
X0116976Y0068531D01*
X0117460Y0068531D02*
X0115525Y0068531D01*
X0116009Y0069543D02*
X0115525Y0070027D01*
X0115525Y0070994D01*
X0116009Y0071478D01*
X0116492Y0071478D01*
X0116976Y0070994D01*
X0116976Y0070511D01*
X0116976Y0070994D02*
X0117460Y0071478D01*
X0117944Y0071478D01*
X0118427Y0070994D01*
X0118427Y0070027D01*
X0117944Y0069543D01*
X0117460Y0068531D02*
X0118427Y0067564D01*
X0117460Y0066597D01*
X0109052Y0067564D02*
X0108085Y0068531D01*
X0106150Y0068531D01*
X0106150Y0069543D02*
X0108085Y0071478D01*
X0108569Y0071478D01*
X0109052Y0070994D01*
X0109052Y0070027D01*
X0108569Y0069543D01*
X0107601Y0068531D02*
X0107601Y0066597D01*
X0108085Y0066597D02*
X0109052Y0067564D01*
X0108085Y0066597D02*
X0106150Y0066597D01*
X0106634Y0065585D02*
X0107601Y0065585D01*
X0107601Y0064617D01*
X0106634Y0063650D02*
X0106150Y0064134D01*
X0106150Y0065101D01*
X0106634Y0065585D01*
X0108569Y0065585D02*
X0109052Y0065101D01*
X0109052Y0064134D01*
X0108569Y0063650D01*
X0106634Y0063650D01*
X0098427Y0064759D02*
X0097944Y0064275D01*
X0096009Y0064275D01*
X0095525Y0064759D01*
X0095525Y0065726D01*
X0096009Y0066210D01*
X0096976Y0066210D01*
X0096976Y0065242D01*
X0097944Y0066210D02*
X0098427Y0065726D01*
X0098427Y0064759D01*
X0097460Y0067222D02*
X0095525Y0067222D01*
X0096976Y0067222D02*
X0096976Y0069156D01*
X0097460Y0069156D02*
X0095525Y0069156D01*
X0097460Y0069156D02*
X0098427Y0068189D01*
X0097460Y0067222D01*
X0097460Y0070168D02*
X0098427Y0071136D01*
X0095525Y0071136D01*
X0095525Y0072103D02*
X0095525Y0070168D01*
X0089052Y0071478D02*
X0088569Y0070511D01*
X0087601Y0069543D01*
X0087601Y0070994D01*
X0087117Y0071478D01*
X0086634Y0071478D01*
X0086150Y0070994D01*
X0086150Y0070027D01*
X0086634Y0069543D01*
X0087601Y0069543D01*
X0086634Y0068531D02*
X0088569Y0068531D01*
X0089052Y0068048D01*
X0089052Y0066597D01*
X0086150Y0066597D01*
X0086150Y0068048D01*
X0086634Y0068531D01*
X0086634Y0065585D02*
X0087601Y0065585D01*
X0087601Y0064617D01*
X0086634Y0063650D02*
X0086150Y0064134D01*
X0086150Y0065101D01*
X0086634Y0065585D01*
X0088569Y0065585D02*
X0089052Y0065101D01*
X0089052Y0064134D01*
X0088569Y0063650D01*
X0086634Y0063650D01*
X0078427Y0064134D02*
X0077944Y0063650D01*
X0076009Y0063650D01*
X0075525Y0064134D01*
X0075525Y0065101D01*
X0076009Y0065585D01*
X0076976Y0065585D01*
X0076976Y0064617D01*
X0077944Y0065585D02*
X0078427Y0065101D01*
X0078427Y0064134D01*
X0078427Y0066597D02*
X0075525Y0066597D01*
X0075525Y0068048D01*
X0076009Y0068531D01*
X0077944Y0068531D01*
X0078427Y0068048D01*
X0078427Y0066597D01*
X0078427Y0069543D02*
X0078427Y0071478D01*
X0077944Y0071478D01*
X0076009Y0069543D01*
X0075525Y0069543D01*
X0068427Y0070027D02*
X0068427Y0070994D01*
X0067944Y0071478D01*
X0067460Y0071478D01*
X0066976Y0070994D01*
X0066976Y0070027D01*
X0067460Y0069543D01*
X0067944Y0069543D01*
X0068427Y0070027D01*
X0066976Y0070027D02*
X0066492Y0069543D01*
X0066009Y0069543D01*
X0065525Y0070027D01*
X0065525Y0070994D01*
X0066009Y0071478D01*
X0066492Y0071478D01*
X0066976Y0070994D01*
X0066009Y0068531D02*
X0067944Y0068531D01*
X0068427Y0068048D01*
X0068427Y0066597D01*
X0065525Y0066597D01*
X0065525Y0068048D01*
X0066009Y0068531D01*
X0066009Y0065585D02*
X0066976Y0065585D01*
X0066976Y0064617D01*
X0066009Y0063650D02*
X0065525Y0064134D01*
X0065525Y0065101D01*
X0066009Y0065585D01*
X0067944Y0065585D02*
X0068427Y0065101D01*
X0068427Y0064134D01*
X0067944Y0063650D01*
X0066009Y0063650D01*
X0058427Y0064134D02*
X0057944Y0063650D01*
X0056009Y0063650D01*
X0055525Y0064134D01*
X0055525Y0065101D01*
X0056009Y0065585D01*
X0056976Y0065585D01*
X0056976Y0064617D01*
X0057944Y0065585D02*
X0058427Y0065101D01*
X0058427Y0064134D01*
X0058427Y0066597D02*
X0055525Y0066597D01*
X0055525Y0068048D01*
X0056009Y0068531D01*
X0057944Y0068531D01*
X0058427Y0068048D01*
X0058427Y0066597D01*
X0057944Y0069543D02*
X0057460Y0069543D01*
X0056976Y0070027D01*
X0056976Y0071478D01*
X0056009Y0071478D02*
X0057944Y0071478D01*
X0058427Y0070994D01*
X0058427Y0070027D01*
X0057944Y0069543D01*
X0056009Y0069543D02*
X0055525Y0070027D01*
X0055525Y0070994D01*
X0056009Y0071478D01*
X0048427Y0071173D02*
X0048427Y0070205D01*
X0047944Y0069722D01*
X0047460Y0069722D01*
X0046976Y0070205D01*
X0046976Y0071173D01*
X0046492Y0071656D01*
X0046009Y0071656D01*
X0045525Y0071173D01*
X0045525Y0070205D01*
X0046009Y0069722D01*
X0046009Y0068710D02*
X0045525Y0068226D01*
X0045525Y0067259D01*
X0046009Y0066775D01*
X0046976Y0067259D02*
X0046976Y0068226D01*
X0046492Y0068710D01*
X0046009Y0068710D01*
X0047944Y0068710D02*
X0048427Y0068226D01*
X0048427Y0067259D01*
X0047944Y0066775D01*
X0047460Y0066775D01*
X0046976Y0067259D01*
X0041802Y0065139D02*
X0040434Y0065139D01*
X0040434Y0066508D01*
X0038382Y0064455D01*
X0038009Y0065513D02*
X0037324Y0065513D01*
X0036640Y0066197D01*
X0036640Y0066881D01*
X0038009Y0068249D01*
X0038693Y0068249D01*
X0039377Y0067565D01*
X0039377Y0066881D01*
X0038009Y0065513D01*
X0039750Y0063087D02*
X0041802Y0065139D01*
X0035925Y0067596D02*
X0035241Y0067596D01*
X0034557Y0068280D01*
X0034557Y0068964D01*
X0034899Y0069306D01*
X0035583Y0069306D01*
X0036267Y0068622D01*
X0036951Y0068622D01*
X0037293Y0068964D01*
X0037293Y0069649D01*
X0036609Y0070333D01*
X0035925Y0070333D01*
X0035552Y0071390D02*
X0034868Y0072074D01*
X0035210Y0071732D02*
X0033157Y0069680D01*
X0033499Y0069338D02*
X0032815Y0070022D01*
X0028469Y0067848D02*
X0027785Y0068532D01*
X0028127Y0068190D02*
X0026074Y0066138D01*
X0026416Y0065796D02*
X0025732Y0066480D01*
X0025370Y0067527D02*
X0024685Y0067527D01*
X0024001Y0068211D01*
X0024001Y0068895D01*
X0024343Y0069237D01*
X0025028Y0069237D01*
X0025712Y0068553D01*
X0026396Y0068553D01*
X0026738Y0068895D01*
X0026738Y0069579D01*
X0026054Y0070263D01*
X0025370Y0070263D01*
X0024654Y0070978D02*
X0023286Y0069610D01*
X0022602Y0069610D01*
X0021918Y0070294D01*
X0021918Y0070978D01*
X0023286Y0072347D01*
X0023970Y0072347D01*
X0024654Y0071663D01*
X0024654Y0070978D01*
X0018427Y0071478D02*
X0016492Y0069543D01*
X0016976Y0070027D02*
X0015525Y0071478D01*
X0015525Y0069543D02*
X0018427Y0069543D01*
X0017944Y0068531D02*
X0018427Y0068048D01*
X0018427Y0067080D01*
X0017944Y0066597D01*
X0016009Y0066597D01*
X0015525Y0067080D01*
X0015525Y0068048D01*
X0016009Y0068531D01*
X0016009Y0065585D02*
X0015525Y0065101D01*
X0015525Y0064134D01*
X0016009Y0063650D01*
X0016976Y0064134D02*
X0016976Y0065101D01*
X0016492Y0065585D01*
X0016009Y0065585D01*
X0017944Y0065585D02*
X0018427Y0065101D01*
X0018427Y0064134D01*
X0017944Y0063650D01*
X0017460Y0063650D01*
X0016976Y0064134D01*
X0008427Y0063650D02*
X0008427Y0065101D01*
X0007944Y0065585D01*
X0006976Y0065585D01*
X0006492Y0065101D01*
X0006492Y0063650D01*
X0005525Y0063650D02*
X0008427Y0063650D01*
X0006492Y0064617D02*
X0005525Y0065585D01*
X0006009Y0066597D02*
X0005525Y0067080D01*
X0005525Y0068048D01*
X0006009Y0068531D01*
X0006492Y0068531D01*
X0006976Y0068048D01*
X0006976Y0067080D01*
X0007460Y0066597D01*
X0007944Y0066597D01*
X0008427Y0067080D01*
X0008427Y0068048D01*
X0007944Y0068531D01*
X0008427Y0069543D02*
X0008427Y0071478D01*
X0008427Y0070511D02*
X0005525Y0070511D01*
X0027132Y0065080D02*
X0029184Y0067133D01*
X0029184Y0065764D01*
X0030552Y0065764D01*
X0028500Y0063712D01*
X0047944Y0071656D02*
X0048427Y0071173D01*
X0098400Y0055568D02*
X0098400Y0054334D01*
X0099017Y0053717D01*
X0099017Y0052492D02*
X0098400Y0052492D01*
X0098400Y0051875D01*
X0099017Y0051875D01*
X0099017Y0052492D01*
X0101486Y0053717D02*
X0102103Y0054334D01*
X0102103Y0055568D01*
X0101486Y0056186D01*
X0100869Y0056186D01*
X0100252Y0055568D01*
X0099634Y0056186D01*
X0099017Y0056186D01*
X0098400Y0055568D01*
X0100252Y0055568D02*
X0100252Y0054951D01*
X0100869Y0050661D02*
X0100252Y0050044D01*
X0099634Y0050661D01*
X0099017Y0050661D01*
X0098400Y0050044D01*
X0098400Y0048809D01*
X0099017Y0048192D01*
X0100252Y0049427D02*
X0100252Y0050044D01*
X0100869Y0050661D02*
X0101486Y0050661D01*
X0102103Y0050044D01*
X0102103Y0048809D01*
X0101486Y0048192D01*
X0100252Y0046978D02*
X0100252Y0044509D01*
X0101486Y0043295D02*
X0099017Y0040826D01*
X0098400Y0040826D01*
X0098400Y0039611D02*
X0098400Y0037143D01*
X0098400Y0035928D02*
X0098400Y0033460D01*
X0098400Y0032245D02*
X0098400Y0029776D01*
X0098400Y0031011D02*
X0102103Y0031011D01*
X0100869Y0029776D01*
X0100869Y0033460D02*
X0102103Y0034694D01*
X0098400Y0034694D01*
X0100869Y0037143D02*
X0102103Y0038377D01*
X0098400Y0038377D01*
X0102103Y0040826D02*
X0102103Y0043295D01*
X0101486Y0043295D01*
X0122198Y0034236D02*
X0122815Y0034853D01*
X0124050Y0034853D01*
X0124667Y0034236D01*
X0125881Y0034236D02*
X0126498Y0034853D01*
X0127733Y0034853D01*
X0128350Y0034236D01*
X0128350Y0031767D01*
X0127733Y0031150D01*
X0126498Y0031150D01*
X0125881Y0031767D01*
X0124667Y0031150D02*
X0122198Y0033619D01*
X0122198Y0034236D01*
X0122198Y0031150D02*
X0124667Y0031150D01*
X0079052Y0022691D02*
X0077601Y0021240D01*
X0077601Y0023175D01*
X0076150Y0022691D02*
X0079052Y0022691D01*
X0106150Y0069543D02*
X0106150Y0071478D01*
D11*
X0065958Y0058929D02*
X0062488Y0058929D01*
X0064223Y0058929D02*
X0064223Y0053725D01*
X0060802Y0054592D02*
X0059934Y0055460D01*
X0057332Y0055460D01*
X0057332Y0056327D02*
X0057332Y0053725D01*
X0059934Y0053725D01*
X0060802Y0054592D01*
X0058199Y0057195D02*
X0057332Y0056327D01*
X0058199Y0057195D02*
X0059934Y0057195D01*
X0055645Y0058929D02*
X0055645Y0053725D01*
X0055645Y0055460D02*
X0053043Y0057195D01*
X0051348Y0057195D02*
X0050481Y0057195D01*
X0050481Y0053725D01*
X0051348Y0053725D02*
X0049613Y0053725D01*
X0047911Y0054592D02*
X0047043Y0053725D01*
X0044441Y0053725D01*
X0044441Y0057195D01*
X0042754Y0057195D02*
X0041887Y0057195D01*
X0041887Y0053725D01*
X0042754Y0053725D02*
X0041019Y0053725D01*
X0039317Y0053725D02*
X0039317Y0057195D01*
X0036714Y0057195D01*
X0035847Y0056327D01*
X0035847Y0053725D01*
X0034160Y0054592D02*
X0033293Y0053725D01*
X0031558Y0053725D01*
X0030691Y0054592D01*
X0030691Y0056327D01*
X0031558Y0057195D01*
X0033293Y0057195D01*
X0034160Y0056327D01*
X0034160Y0054592D01*
X0041887Y0058929D02*
X0041887Y0059797D01*
X0047911Y0057195D02*
X0047911Y0054592D01*
X0053043Y0053725D02*
X0055645Y0055460D01*
X0050481Y0058929D02*
X0050481Y0059797D01*
X0023848Y0058929D02*
X0023848Y0055460D01*
X0022113Y0053725D01*
X0020378Y0055460D01*
X0020378Y0058929D01*
X0018691Y0058062D02*
X0017824Y0058929D01*
X0016089Y0058929D01*
X0015221Y0058062D01*
X0015221Y0057195D01*
X0016089Y0056327D01*
X0015221Y0055460D01*
X0015221Y0054592D01*
X0016089Y0053725D01*
X0017824Y0053725D01*
X0018691Y0054592D01*
X0016956Y0056327D02*
X0016089Y0056327D01*
X0013535Y0054592D02*
X0012667Y0054592D01*
X0012667Y0053725D01*
X0013535Y0053725D01*
X0013535Y0054592D01*
X0010957Y0053725D02*
X0007487Y0057195D01*
X0007487Y0058062D01*
X0008354Y0058929D01*
X0010089Y0058929D01*
X0010957Y0058062D01*
X0010957Y0053725D02*
X0007487Y0053725D01*
X0032458Y0032196D02*
X0032458Y0031429D01*
X0032458Y0029894D02*
X0032458Y0026058D01*
X0033226Y0025290D01*
X0033993Y0025290D01*
X0036295Y0026825D02*
X0038597Y0026825D01*
X0036295Y0026825D02*
X0035528Y0027592D01*
X0035528Y0029127D01*
X0036295Y0029894D01*
X0038597Y0029894D01*
X0038597Y0025290D01*
X0043201Y0026825D02*
X0040132Y0031429D01*
X0044735Y0031429D02*
X0047805Y0026825D01*
X0049339Y0026825D02*
X0049339Y0027592D01*
X0050107Y0027592D01*
X0050107Y0026825D01*
X0049339Y0026825D01*
X0051641Y0027592D02*
X0052409Y0026825D01*
X0054711Y0026825D01*
X0056245Y0026825D02*
X0057013Y0027592D01*
X0057013Y0030662D01*
X0057780Y0029894D02*
X0056245Y0029894D01*
X0054711Y0029894D02*
X0052409Y0029894D01*
X0051641Y0029127D01*
X0051641Y0027592D01*
X0050107Y0029127D02*
X0049339Y0029127D01*
X0049339Y0029894D01*
X0050107Y0029894D01*
X0050107Y0029127D01*
X0054711Y0029894D02*
X0054711Y0025290D01*
X0059315Y0026825D02*
X0060082Y0027592D01*
X0060082Y0030662D01*
X0060849Y0029894D02*
X0059315Y0029894D01*
X0062384Y0029127D02*
X0062384Y0026825D01*
X0065453Y0026825D02*
X0065453Y0031429D01*
X0064686Y0029894D02*
X0063151Y0029894D01*
X0062384Y0029127D01*
X0064686Y0029894D02*
X0065453Y0029127D01*
X0030924Y0029894D02*
X0030924Y0026825D01*
X0030924Y0028360D02*
X0029389Y0029894D01*
X0028622Y0029894D01*
X0024785Y0029127D02*
X0024785Y0027592D01*
X0024018Y0026825D01*
X0021716Y0026825D01*
X0020181Y0027592D02*
X0019414Y0026825D01*
X0017112Y0026825D01*
X0015577Y0026825D02*
X0012508Y0031429D01*
X0010206Y0030662D02*
X0010206Y0027592D01*
X0009439Y0026825D01*
X0007904Y0027592D02*
X0007137Y0026825D01*
X0004835Y0026825D01*
X0004835Y0029894D01*
X0007904Y0029894D02*
X0007904Y0027592D01*
X0009439Y0029894D02*
X0010973Y0029894D01*
X0017112Y0029894D02*
X0019414Y0029894D01*
X0020181Y0029127D01*
X0020181Y0027592D01*
X0021716Y0029894D02*
X0024018Y0029894D01*
X0024785Y0029127D01*
X0026320Y0027592D02*
X0026320Y0026825D01*
X0027087Y0026825D01*
X0027087Y0027592D01*
X0026320Y0027592D01*
D12*
X0121000Y0037250D02*
X0128500Y0037250D01*
X0171000Y0037250D02*
X0178500Y0037250D01*
M02*
