%
M48
M72
T01C0.0130
T02C0.0400
%
T01
X8465Y2550
X6645Y4195
X7485Y5210
X7835Y5595
X8885Y5875
X9515Y5350
X14835Y3495
X3600Y5175
X2865Y5420
T02
X725Y725
X1725Y725
X2725Y725
X3725Y725
X4725Y725
X5725Y725
X6725Y725
X7725Y725
X8725Y725
X9725Y725
X10725Y725
X11725Y725
X12725Y725
X13725Y725
X14725Y725
X15725Y725
X16725Y725
X17725Y725
X2663Y3725
X1663Y3725
X663Y3725
X663Y4725
X1663Y4725
X2663Y4725
X2725Y7725
X1725Y7725
X725Y7725
X3725Y7725
X4725Y7725
X5725Y7725
X6725Y7725
X7725Y7725
X8725Y7725
X9725Y7725
X10725Y7725
X11725Y7725
X12725Y7725
X13725Y7725
X14725Y7725
X15725Y7725
X16725Y7725
X17725Y7725
M30
