G75*
%MOIN*%
%OFA0B0*%
%FSLAX25Y25*%
%IPPOS*%
%LPD*%
%AMOC8*
5,1,8,0,0,1.08239X$1,22.5*
%
%ADD10R,0.03937X0.04331*%
%ADD11R,0.07400X0.07400*%
%ADD12OC8,0.07400*%
%ADD13R,0.03150X0.03150*%
%ADD14R,0.06299X0.09055*%
%ADD15C,0.07400*%
%ADD16R,0.06693X0.02756*%
%ADD17R,0.05800X0.02000*%
%ADD18R,0.02000X0.05800*%
%ADD19C,0.00800*%
%ADD20C,0.02700*%
D10*
X0111000Y0038904D03*
X0118904Y0037250D03*
X0125596Y0037250D03*
X0111000Y0045596D03*
X0118904Y0048500D03*
X0125596Y0048500D03*
D11*
X0007250Y0007250D03*
X0026625Y0047250D03*
X0007250Y0077250D03*
D12*
X0006625Y0047250D03*
X0016625Y0047250D03*
X0016625Y0037250D03*
X0026625Y0037250D03*
X0006625Y0037250D03*
D13*
X0133500Y0037703D03*
X0133500Y0031797D03*
X0133500Y0046797D03*
X0133500Y0052703D03*
D14*
X0167875Y0053402D03*
X0167875Y0028598D03*
D15*
X0167250Y0007250D03*
X0157250Y0007250D03*
X0147250Y0007250D03*
X0137250Y0007250D03*
X0127250Y0007250D03*
X0117250Y0007250D03*
X0107250Y0007250D03*
X0097250Y0007250D03*
X0087250Y0007250D03*
X0077250Y0007250D03*
X0067250Y0007250D03*
X0057250Y0007250D03*
X0047250Y0007250D03*
X0037250Y0007250D03*
X0027250Y0007250D03*
X0017250Y0007250D03*
X0017250Y0077250D03*
X0027250Y0077250D03*
X0037250Y0077250D03*
X0047250Y0077250D03*
X0057250Y0077250D03*
X0067250Y0077250D03*
X0077250Y0077250D03*
X0087250Y0077250D03*
X0097250Y0077250D03*
X0107250Y0077250D03*
X0117250Y0077250D03*
X0127250Y0077250D03*
X0137250Y0077250D03*
X0147250Y0077250D03*
X0157250Y0077250D03*
X0167250Y0077250D03*
X0177250Y0077250D03*
X0177250Y0007250D03*
D16*
X0042250Y0033151D03*
X0042250Y0037875D03*
X0042250Y0042599D03*
D17*
X0055900Y0042250D03*
X0055900Y0045350D03*
X0055900Y0048550D03*
X0055900Y0051650D03*
X0055900Y0054850D03*
X0055900Y0057950D03*
X0055900Y0039150D03*
X0055900Y0035950D03*
X0055900Y0032850D03*
X0055900Y0029650D03*
X0055900Y0026550D03*
X0101100Y0026550D03*
X0101100Y0029650D03*
X0101100Y0032850D03*
X0101100Y0035950D03*
X0101100Y0039150D03*
X0101100Y0042250D03*
X0101100Y0045350D03*
X0101100Y0048550D03*
X0101100Y0051650D03*
X0101100Y0054850D03*
X0101100Y0057950D03*
D18*
X0094200Y0064850D03*
X0091100Y0064850D03*
X0087900Y0064850D03*
X0084800Y0064850D03*
X0081600Y0064850D03*
X0078500Y0064850D03*
X0075400Y0064850D03*
X0072200Y0064850D03*
X0069100Y0064850D03*
X0065900Y0064850D03*
X0062800Y0064850D03*
X0062800Y0019650D03*
X0065900Y0019650D03*
X0069100Y0019650D03*
X0072200Y0019650D03*
X0075400Y0019650D03*
X0078500Y0019650D03*
X0081600Y0019650D03*
X0084800Y0019650D03*
X0087900Y0019650D03*
X0091100Y0019650D03*
X0094200Y0019650D03*
D19*
X0094450Y0019550D01*
X0104950Y0019550D01*
X0117250Y0007250D01*
X0127000Y0007300D02*
X0127250Y0007250D01*
X0127000Y0007300D02*
X0107750Y0026550D01*
X0101100Y0026550D01*
X0101100Y0029350D02*
X0101100Y0029650D01*
X0101100Y0029350D02*
X0115100Y0029350D01*
X0137150Y0007300D01*
X0137250Y0007250D01*
X0146950Y0007300D02*
X0147250Y0007250D01*
X0146950Y0007300D02*
X0121400Y0032850D01*
X0101100Y0032850D01*
X0101100Y0035650D02*
X0101100Y0035950D01*
X0101100Y0035650D02*
X0113350Y0035650D01*
X0114750Y0037050D01*
X0118600Y0037050D01*
X0118904Y0037250D01*
X0122100Y0034950D02*
X0122100Y0039850D01*
X0121400Y0040550D01*
X0112650Y0040550D01*
X0111250Y0039150D01*
X0111000Y0038904D01*
X0110900Y0039150D01*
X0101100Y0039150D01*
X0093400Y0039150D01*
X0093400Y0039500D01*
X0081850Y0051050D01*
X0081500Y0051050D01*
X0075900Y0045450D01*
X0056300Y0045450D01*
X0055900Y0045350D01*
X0055600Y0045100D01*
X0035650Y0045100D01*
X0027950Y0037400D01*
X0026900Y0037400D01*
X0026625Y0037250D01*
X0028650Y0032500D02*
X0033900Y0037750D01*
X0041950Y0037750D01*
X0042250Y0037875D01*
X0044050Y0042300D02*
X0047200Y0039150D01*
X0055900Y0039150D01*
X0055950Y0041950D02*
X0055900Y0042250D01*
X0055950Y0041950D02*
X0066450Y0041950D01*
X0055900Y0035950D02*
X0055600Y0035650D01*
X0046500Y0035650D01*
X0044050Y0033200D01*
X0042300Y0033200D01*
X0042250Y0033151D01*
X0048250Y0032850D02*
X0029000Y0013600D01*
X0013600Y0013600D01*
X0007250Y0007250D01*
X0017250Y0007250D02*
X0017450Y0007300D01*
X0022350Y0012200D01*
X0029700Y0012200D01*
X0046850Y0029350D01*
X0055600Y0029350D01*
X0055900Y0029650D01*
X0055900Y0032850D02*
X0048250Y0032850D01*
X0046500Y0026550D02*
X0027250Y0007300D01*
X0027250Y0007250D01*
X0037250Y0007250D02*
X0037400Y0007300D01*
X0049650Y0019550D01*
X0062600Y0019550D01*
X0062800Y0019650D01*
X0065750Y0019550D02*
X0065900Y0019650D01*
X0065750Y0019550D02*
X0065750Y0017100D01*
X0060850Y0012200D01*
X0052450Y0012200D01*
X0047550Y0007300D01*
X0047250Y0007250D01*
X0057250Y0007250D02*
X0057350Y0007300D01*
X0059100Y0007300D01*
X0068900Y0017100D01*
X0068900Y0019550D01*
X0069100Y0019650D01*
X0072050Y0019550D02*
X0072200Y0019650D01*
X0072050Y0019550D02*
X0072050Y0011850D01*
X0067500Y0007300D01*
X0067250Y0007250D01*
X0075550Y0008700D02*
X0076950Y0007300D01*
X0077250Y0007250D01*
X0075550Y0008700D02*
X0075550Y0019550D01*
X0075400Y0019650D01*
X0078500Y0019650D02*
X0078700Y0019900D01*
X0078700Y0024450D01*
X0093400Y0039150D01*
X0098650Y0042300D02*
X0095150Y0045800D01*
X0095150Y0053500D01*
X0101100Y0054850D02*
X0101100Y0054900D01*
X0110550Y0054900D01*
X0126650Y0071000D01*
X0141000Y0071000D01*
X0147250Y0077250D01*
X0137250Y0077250D02*
X0137150Y0076950D01*
X0132600Y0072400D01*
X0125950Y0072400D01*
X0111600Y0058050D01*
X0101100Y0058050D01*
X0101100Y0057950D01*
X0088850Y0058750D02*
X0088150Y0059450D01*
X0088150Y0064700D01*
X0087900Y0064850D01*
X0085000Y0065050D02*
X0084800Y0064850D01*
X0085000Y0065050D02*
X0085000Y0067500D01*
X0094450Y0076950D01*
X0097250Y0076950D01*
X0097250Y0077250D01*
X0087250Y0077250D02*
X0087100Y0076950D01*
X0085000Y0076950D01*
X0075550Y0067500D01*
X0075550Y0065050D01*
X0075400Y0064850D01*
X0072400Y0065050D02*
X0072200Y0064850D01*
X0072400Y0065050D02*
X0072400Y0072400D01*
X0077250Y0077250D01*
X0068900Y0075550D02*
X0067500Y0076950D01*
X0067250Y0077250D01*
X0068900Y0075550D02*
X0068900Y0065050D01*
X0069100Y0064850D01*
X0065900Y0064850D02*
X0065750Y0065050D01*
X0065750Y0068550D01*
X0057350Y0076950D01*
X0057250Y0077250D01*
X0047250Y0077250D02*
X0059450Y0065050D01*
X0062600Y0065050D01*
X0062800Y0064850D01*
X0055600Y0058750D02*
X0037400Y0076950D01*
X0037250Y0077250D01*
X0027250Y0077250D02*
X0027250Y0062950D01*
X0034600Y0055600D01*
X0034600Y0055250D01*
X0026900Y0047550D01*
X0026625Y0047250D01*
X0030750Y0042300D02*
X0011850Y0042300D01*
X0006950Y0047200D01*
X0006625Y0047250D01*
X0006950Y0047550D01*
X0006950Y0076950D01*
X0007250Y0077250D01*
X0017250Y0077250D02*
X0017450Y0076950D01*
X0017450Y0060500D01*
X0023400Y0054550D01*
X0023400Y0054200D01*
X0016750Y0047550D01*
X0016625Y0047250D01*
X0030750Y0042300D02*
X0036700Y0048250D01*
X0055600Y0048250D01*
X0055900Y0048550D01*
X0055950Y0048600D01*
X0058400Y0048600D01*
X0061900Y0052100D01*
X0074850Y0052100D01*
X0081850Y0051050D02*
X0081850Y0064700D01*
X0081600Y0064850D01*
X0078500Y0064850D02*
X0078350Y0064700D01*
X0078350Y0055950D01*
X0091100Y0064850D02*
X0091300Y0065050D01*
X0091300Y0067500D01*
X0096200Y0072400D01*
X0112650Y0072400D01*
X0117200Y0076950D01*
X0117250Y0077250D01*
X0127000Y0076950D02*
X0127250Y0077250D01*
X0127000Y0076950D02*
X0115100Y0065050D01*
X0094450Y0065050D01*
X0094200Y0064850D01*
X0101100Y0051750D02*
X0101100Y0051650D01*
X0101100Y0051750D02*
X0109500Y0051750D01*
X0127350Y0069600D01*
X0149750Y0069600D01*
X0157100Y0076950D01*
X0157250Y0077250D01*
X0158500Y0068200D02*
X0167250Y0076950D01*
X0167250Y0077250D01*
X0177050Y0076950D02*
X0177250Y0077250D01*
X0177050Y0076950D02*
X0166900Y0066800D01*
X0138200Y0066800D01*
X0120000Y0048600D01*
X0118950Y0048600D01*
X0118904Y0048500D01*
X0125596Y0048500D02*
X0125600Y0048600D01*
X0129450Y0052450D01*
X0133300Y0052450D01*
X0133500Y0052703D01*
X0134000Y0046500D02*
X0140650Y0053150D01*
X0165250Y0053150D01*
X0167875Y0053402D01*
X0158500Y0068200D02*
X0128050Y0068200D01*
X0108450Y0048600D01*
X0101100Y0048600D01*
X0101100Y0048550D01*
X0101100Y0045450D02*
X0101100Y0045350D01*
X0101100Y0045450D02*
X0110900Y0045450D01*
X0111000Y0045596D01*
X0101100Y0042300D02*
X0101100Y0042250D01*
X0100750Y0042300D01*
X0098650Y0042300D01*
X0101100Y0042300D02*
X0133650Y0042300D01*
X0133650Y0037750D01*
X0133500Y0037703D01*
X0134000Y0037750D01*
X0140300Y0031450D01*
X0149750Y0031450D01*
X0173900Y0007300D01*
X0177050Y0007300D01*
X0177250Y0007250D01*
X0167250Y0007300D02*
X0167250Y0007250D01*
X0167250Y0007300D02*
X0164100Y0007300D01*
X0142400Y0029000D01*
X0128050Y0029000D01*
X0122100Y0034950D01*
X0125600Y0037050D02*
X0125596Y0037250D01*
X0125600Y0037050D02*
X0130850Y0031800D01*
X0133300Y0031800D01*
X0133500Y0031797D01*
X0148350Y0034950D02*
X0154650Y0028650D01*
X0163375Y0028650D01*
X0167875Y0028598D01*
X0133650Y0042300D02*
X0133650Y0046500D01*
X0133500Y0046797D01*
X0134000Y0046500D01*
X0084650Y0025500D02*
X0081850Y0022700D01*
X0081850Y0019900D01*
X0081600Y0019650D01*
X0084800Y0019650D02*
X0085000Y0019550D01*
X0085000Y0009400D01*
X0087100Y0007300D01*
X0087250Y0007250D01*
X0088150Y0016400D02*
X0097250Y0007300D01*
X0097250Y0007250D01*
X0096200Y0012200D02*
X0102150Y0012200D01*
X0107050Y0007300D01*
X0107250Y0007250D01*
X0096200Y0012200D02*
X0091300Y0017100D01*
X0091300Y0019550D01*
X0091100Y0019650D01*
X0088150Y0019550D02*
X0087900Y0019650D01*
X0088150Y0019550D02*
X0088150Y0016400D01*
X0055900Y0026550D02*
X0046500Y0026550D01*
X0028650Y0032500D02*
X0011500Y0032500D01*
X0006950Y0037050D01*
X0006625Y0037250D01*
X0036000Y0051750D02*
X0055600Y0051750D01*
X0055900Y0051650D01*
X0055900Y0054850D02*
X0055600Y0054900D01*
X0037750Y0054900D01*
X0037400Y0055250D01*
X0034600Y0055250D01*
X0028650Y0054200D02*
X0023400Y0054200D01*
X0042250Y0042599D02*
X0042300Y0042300D01*
X0044050Y0042300D01*
X0055600Y0058050D02*
X0055900Y0057950D01*
X0055600Y0058050D02*
X0055600Y0058750D01*
D20*
X0074850Y0052100D03*
X0078350Y0055950D03*
X0088850Y0058750D03*
X0095150Y0053500D03*
X0066450Y0041950D03*
X0036000Y0051750D03*
X0028650Y0054200D03*
X0084650Y0025500D03*
X0148350Y0034950D03*
M02*
