G75*
%MOIN*%
%OFA0B0*%
%FSLAX25Y25*%
%IPPOS*%
%LPD*%
%AMOC8*
5,1,8,0,0,1.08239X$1,22.5*
%
%ADD10R,0.03937X0.04331*%
%ADD11R,0.03150X0.03150*%
%ADD12R,0.06299X0.09055*%
%ADD13R,0.06693X0.02756*%
%ADD14R,0.05800X0.02000*%
%ADD15R,0.02000X0.05800*%
D10*
X0111000Y0038904D03*
X0118904Y0037250D03*
X0125596Y0037250D03*
X0111000Y0045596D03*
X0118904Y0048500D03*
X0125596Y0048500D03*
D11*
X0133500Y0046797D03*
X0133500Y0052703D03*
X0133500Y0037703D03*
X0133500Y0031797D03*
D12*
X0167875Y0028598D03*
X0167875Y0053402D03*
D13*
X0042250Y0042599D03*
X0042250Y0037875D03*
X0042250Y0033151D03*
D14*
X0055900Y0026550D03*
X0055900Y0029650D03*
X0055900Y0032850D03*
X0055900Y0035950D03*
X0055900Y0039150D03*
X0055900Y0042250D03*
X0055900Y0045350D03*
X0055900Y0048550D03*
X0055900Y0051650D03*
X0055900Y0054850D03*
X0055900Y0057950D03*
X0101100Y0057950D03*
X0101100Y0054850D03*
X0101100Y0051650D03*
X0101100Y0048550D03*
X0101100Y0045350D03*
X0101100Y0042250D03*
X0101100Y0039150D03*
X0101100Y0035950D03*
X0101100Y0032850D03*
X0101100Y0029650D03*
X0101100Y0026550D03*
D15*
X0094200Y0019650D03*
X0091100Y0019650D03*
X0087900Y0019650D03*
X0084800Y0019650D03*
X0081600Y0019650D03*
X0078500Y0019650D03*
X0075400Y0019650D03*
X0072200Y0019650D03*
X0069100Y0019650D03*
X0065900Y0019650D03*
X0062800Y0019650D03*
X0062800Y0064850D03*
X0065900Y0064850D03*
X0069100Y0064850D03*
X0072200Y0064850D03*
X0075400Y0064850D03*
X0078500Y0064850D03*
X0081600Y0064850D03*
X0084800Y0064850D03*
X0087900Y0064850D03*
X0091100Y0064850D03*
X0094200Y0064850D03*
M02*
