G75*
%MOIN*%
%OFA0B0*%
%FSLAX25Y25*%
%IPPOS*%
%LPD*%
%AMOC8*
5,1,8,0,0,1.08239X$1,22.5*
%
%ADD10R,0.04537X0.04931*%
%ADD11R,0.08000X0.08000*%
%ADD12OC8,0.08000*%
%ADD13R,0.03750X0.03750*%
%ADD14R,0.09655X0.06899*%
%ADD15C,0.08000*%
%ADD16R,0.07293X0.03356*%
%ADD17R,0.06400X0.02600*%
%ADD18R,0.02600X0.06400*%
%ADD19C,0.03300*%
D10*
X0111000Y0038904D03*
X0118904Y0037250D03*
X0125596Y0037250D03*
X0111000Y0045596D03*
X0118904Y0048500D03*
X0125596Y0048500D03*
D11*
X0007250Y0007250D03*
X0027250Y0057250D03*
X0007250Y0077250D03*
D12*
X0007250Y0057250D03*
X0017250Y0057250D03*
X0017250Y0047250D03*
X0027250Y0047250D03*
X0007250Y0047250D03*
D13*
X0133500Y0046797D03*
X0133500Y0052703D03*
X0133500Y0037703D03*
X0133500Y0031797D03*
D14*
X0032152Y0029750D03*
X0007348Y0029750D03*
D15*
X0017250Y0007250D03*
X0027250Y0007250D03*
X0037250Y0007250D03*
X0047250Y0007250D03*
X0057250Y0007250D03*
X0067250Y0007250D03*
X0077250Y0007250D03*
X0087250Y0007250D03*
X0097250Y0007250D03*
X0107250Y0007250D03*
X0117250Y0007250D03*
X0127250Y0007250D03*
X0137250Y0007250D03*
X0147250Y0007250D03*
X0157250Y0007250D03*
X0167250Y0007250D03*
X0177250Y0007250D03*
X0177250Y0077250D03*
X0167250Y0077250D03*
X0157250Y0077250D03*
X0147250Y0077250D03*
X0137250Y0077250D03*
X0127250Y0077250D03*
X0117250Y0077250D03*
X0107250Y0077250D03*
X0097250Y0077250D03*
X0087250Y0077250D03*
X0077250Y0077250D03*
X0067250Y0077250D03*
X0057250Y0077250D03*
X0047250Y0077250D03*
X0037250Y0077250D03*
X0027250Y0077250D03*
X0017250Y0077250D03*
D16*
X0042250Y0041974D03*
X0042250Y0037250D03*
X0042250Y0032526D03*
D17*
X0055900Y0032850D03*
X0055900Y0029650D03*
X0055900Y0026550D03*
X0055900Y0035950D03*
X0055900Y0039150D03*
X0055900Y0042250D03*
X0055900Y0045350D03*
X0055900Y0048550D03*
X0055900Y0051650D03*
X0055900Y0054850D03*
X0055900Y0057950D03*
X0101100Y0057950D03*
X0101100Y0054850D03*
X0101100Y0051650D03*
X0101100Y0048550D03*
X0101100Y0045350D03*
X0101100Y0042250D03*
X0101100Y0039150D03*
X0101100Y0035950D03*
X0101100Y0032850D03*
X0101100Y0029650D03*
X0101100Y0026550D03*
D18*
X0094200Y0019650D03*
X0091100Y0019650D03*
X0087900Y0019650D03*
X0084800Y0019650D03*
X0081600Y0019650D03*
X0078500Y0019650D03*
X0075400Y0019650D03*
X0072200Y0019650D03*
X0069100Y0019650D03*
X0065900Y0019650D03*
X0062800Y0019650D03*
X0062800Y0064850D03*
X0065900Y0064850D03*
X0069100Y0064850D03*
X0072200Y0064850D03*
X0075400Y0064850D03*
X0078500Y0064850D03*
X0081600Y0064850D03*
X0084800Y0064850D03*
X0087900Y0064850D03*
X0091100Y0064850D03*
X0094200Y0064850D03*
D19*
X0089900Y0058750D03*
X0095150Y0053500D03*
X0078000Y0058750D03*
X0095150Y0045450D03*
X0095150Y0035650D03*
X0086050Y0031800D03*
X0061900Y0041950D03*
M02*
