G75*
%MOIN*%
%OFA0B0*%
%FSLAX25Y25*%
%IPPOS*%
%LPD*%
%AMOC8*
5,1,8,0,0,1.08239X$1,22.5*
%
%ADD10R,0.07900X0.05900*%
%ADD11R,0.07900X0.15000*%
%ADD12R,0.06299X0.05512*%
%ADD13R,0.07400X0.07400*%
%ADD14OC8,0.07400*%
%ADD15C,0.07400*%
%ADD16C,0.00800*%
%ADD17C,0.02700*%
%ADD18C,0.01000*%
D10*
X0112150Y0034400D03*
X0112150Y0043400D03*
X0112150Y0052400D03*
X0162150Y0052400D03*
X0162150Y0043400D03*
X0162150Y0034400D03*
D11*
X0137350Y0043500D03*
X0087350Y0043500D03*
D12*
X0124750Y0041738D03*
X0124750Y0052762D03*
X0174750Y0052762D03*
X0174750Y0041738D03*
D13*
X0007250Y0007250D03*
X0027250Y0057250D03*
X0007250Y0077250D03*
D14*
X0007250Y0057250D03*
X0017250Y0057250D03*
X0017250Y0047250D03*
X0027250Y0047250D03*
X0007250Y0047250D03*
D15*
X0017250Y0077250D03*
X0027250Y0077250D03*
X0037250Y0077250D03*
X0047250Y0077250D03*
X0057250Y0077250D03*
X0067250Y0077250D03*
X0077250Y0077250D03*
X0087250Y0077250D03*
X0097250Y0077250D03*
X0107250Y0077250D03*
X0117250Y0077250D03*
X0127250Y0077250D03*
X0137250Y0077250D03*
X0147250Y0077250D03*
X0157250Y0077250D03*
X0167250Y0077250D03*
X0177250Y0077250D03*
X0177250Y0007250D03*
X0167250Y0007250D03*
X0157250Y0007250D03*
X0147250Y0007250D03*
X0137250Y0007250D03*
X0127250Y0007250D03*
X0117250Y0007250D03*
X0107250Y0007250D03*
X0097250Y0007250D03*
X0087250Y0007250D03*
X0077250Y0007250D03*
X0067250Y0007250D03*
X0057250Y0007250D03*
X0047250Y0007250D03*
X0037250Y0007250D03*
X0027250Y0007250D03*
X0017250Y0007250D03*
D16*
X0051750Y0047200D02*
X0066800Y0032150D01*
X0086050Y0032150D01*
X0086050Y0031800D01*
X0086050Y0032150D02*
X0109850Y0032150D01*
X0111950Y0034250D01*
X0112150Y0034400D01*
X0112300Y0034600D01*
X0153250Y0034600D01*
X0162000Y0043350D01*
X0162150Y0043400D01*
X0162350Y0043350D01*
X0163750Y0041950D01*
X0167250Y0041950D01*
X0167250Y0007250D01*
X0177250Y0007250D02*
X0177400Y0007300D01*
X0179150Y0009050D01*
X0179150Y0044750D01*
X0174600Y0049300D01*
X0174600Y0052100D01*
X0174750Y0052762D01*
X0174600Y0052450D01*
X0162350Y0052450D01*
X0162150Y0052400D01*
X0167250Y0041950D02*
X0174600Y0041950D01*
X0174750Y0041738D01*
X0153250Y0072400D02*
X0124550Y0043700D01*
X0124550Y0042300D01*
X0124750Y0041738D01*
X0124550Y0041950D01*
X0113700Y0041950D01*
X0112300Y0043350D01*
X0112150Y0043400D01*
X0111950Y0052450D02*
X0101625Y0042125D01*
X0096725Y0047025D01*
X0095150Y0045450D01*
X0096725Y0047025D02*
X0085000Y0058750D01*
X0078000Y0058750D01*
X0077650Y0058750D01*
X0071350Y0052450D01*
X0061900Y0052450D01*
X0061900Y0041950D01*
X0051750Y0047200D02*
X0027250Y0047200D01*
X0027250Y0047250D01*
X0022350Y0045450D02*
X0022350Y0049300D01*
X0025500Y0052450D01*
X0061900Y0052450D01*
X0089900Y0058750D02*
X0089900Y0059800D01*
X0107050Y0076950D01*
X0107250Y0077250D01*
X0123500Y0072400D02*
X0151150Y0072400D01*
X0155700Y0076950D01*
X0157100Y0076950D01*
X0157250Y0077250D01*
X0153250Y0072400D02*
X0172500Y0072400D01*
X0177050Y0076950D01*
X0177250Y0077250D01*
X0124750Y0052762D02*
X0124550Y0052450D01*
X0112300Y0052450D01*
X0112150Y0052400D01*
X0111950Y0052450D01*
X0104600Y0053500D02*
X0123500Y0072400D01*
X0104600Y0053500D02*
X0095150Y0053500D01*
X0101625Y0042125D02*
X0095150Y0035650D01*
X0037050Y0076950D02*
X0022350Y0062250D01*
X0022350Y0055600D01*
X0017450Y0050700D01*
X0017450Y0047550D01*
X0017250Y0047250D01*
X0019200Y0042300D02*
X0022350Y0045450D01*
X0019200Y0042300D02*
X0015350Y0042300D01*
X0010450Y0047200D01*
X0007300Y0047200D01*
X0007250Y0047250D01*
X0037050Y0076950D02*
X0037250Y0077250D01*
D17*
X0078000Y0058750D03*
X0089900Y0058750D03*
X0095150Y0053500D03*
X0095150Y0045450D03*
X0095150Y0035650D03*
X0086050Y0031800D03*
X0061900Y0041950D03*
D18*
X0157250Y0007250D02*
X0157450Y0007300D01*
X0162000Y0011850D01*
X0162000Y0034250D01*
X0162150Y0034400D01*
M02*
