%
M48
M72
T01C0.0130
T02C0.0400
%
T01
X8605Y3180
X9515Y3565
X9515Y4545
X9515Y5350
X8990Y5875
X7800Y5875
X6190Y4195
T02
X725Y725
X1725Y725
X2725Y725
X3725Y725
X4725Y725
X5725Y725
X6725Y725
X7725Y725
X8725Y725
X9725Y725
X10725Y725
X11725Y725
X12725Y725
X13725Y725
X14725Y725
X15725Y725
X16725Y725
X17725Y725
X2725Y4725
X1725Y4725
X725Y4725
X725Y5725
X1725Y5725
X2725Y5725
X2725Y7725
X1725Y7725
X725Y7725
X3725Y7725
X4725Y7725
X5725Y7725
X6725Y7725
X7725Y7725
X8725Y7725
X9725Y7725
X10725Y7725
X11725Y7725
X12725Y7725
X13725Y7725
X14725Y7725
X15725Y7725
X16725Y7725
X17725Y7725
M30
