G75*
%MOIN*%
%OFA0B0*%
%FSLAX25Y25*%
%IPPOS*%
%LPD*%
%AMOC8*
5,1,8,0,0,1.08239X$1,22.5*
%
%ADD10R,0.04931X0.04537*%
%ADD11R,0.06500X0.08500*%
%ADD12R,0.15600X0.08500*%
%ADD13C,0.06600*%
%ADD14R,0.08000X0.08000*%
%ADD15C,0.08000*%
%ADD16C,0.03300*%
D10*
X0052654Y0038500D03*
X0059346Y0038500D03*
X0059346Y0053500D03*
X0052654Y0053500D03*
X0087654Y0021000D03*
X0094346Y0021000D03*
D11*
X0090100Y0060900D03*
X0081100Y0060900D03*
X0072100Y0060900D03*
X0102100Y0060900D03*
X0111100Y0060900D03*
X0120100Y0060900D03*
D12*
X0111000Y0036100D03*
X0081000Y0036100D03*
D13*
X0133000Y0036000D02*
X0139000Y0036000D01*
X0139000Y0046000D02*
X0133000Y0046000D01*
X0133000Y0056000D02*
X0139000Y0056000D01*
D14*
X0116000Y0006000D03*
X0006000Y0076000D03*
D15*
X0006000Y0006000D03*
X0016000Y0006000D03*
X0026000Y0006000D03*
X0036000Y0006000D03*
X0046000Y0006000D03*
X0056000Y0006000D03*
X0066000Y0006000D03*
X0076000Y0006000D03*
X0086000Y0006000D03*
X0096000Y0006000D03*
X0106000Y0006000D03*
X0126000Y0006000D03*
X0136000Y0006000D03*
X0136000Y0076000D03*
X0126000Y0076000D03*
X0116000Y0076000D03*
X0106000Y0076000D03*
X0096000Y0076000D03*
X0086000Y0076000D03*
X0076000Y0076000D03*
X0066000Y0076000D03*
X0056000Y0076000D03*
X0046000Y0076000D03*
X0036000Y0076000D03*
X0026000Y0076000D03*
X0016000Y0076000D03*
D16*
X0021300Y0055950D03*
X0027250Y0047550D03*
X0040900Y0044400D03*
X0061550Y0042650D03*
X0074500Y0054200D03*
X0057700Y0057700D03*
X0087450Y0068550D03*
X0096900Y0061200D03*
X0117900Y0053850D03*
X0099700Y0031100D03*
X0094100Y0025850D03*
X0074500Y0030050D03*
X0058750Y0023400D03*
X0064000Y0013250D03*
X0113000Y0016400D03*
M02*
