G75*
%MOIN*%
%OFA0B0*%
%FSLAX25Y25*%
%IPPOS*%
%LPD*%
%AMOC8*
5,1,8,0,0,1.08239X$1,22.5*
%
%ADD10R,0.06899X0.06112*%
%ADD11R,0.01969X0.03150*%
%ADD12R,0.06299X0.01575*%
%ADD13R,0.06400X0.02600*%
%ADD14R,0.02600X0.06400*%
%ADD15R,0.04931X0.04537*%
%ADD16R,0.04537X0.04931*%
%ADD17R,0.03100X0.05600*%
%ADD18C,0.06600*%
%ADD19R,0.08000X0.08000*%
%ADD20C,0.08000*%
%ADD21C,0.03300*%
D10*
X0118500Y0047988D03*
X0118500Y0059012D03*
D11*
X0017634Y0061906D03*
X0009366Y0061906D03*
X0009366Y0056000D03*
X0017634Y0056000D03*
X0017634Y0050094D03*
X0009366Y0050094D03*
D12*
X0013500Y0050094D03*
X0013500Y0056000D03*
X0013500Y0061906D03*
D13*
X0035900Y0056700D03*
X0035900Y0053600D03*
X0035900Y0050400D03*
X0035900Y0047300D03*
X0035900Y0044100D03*
X0035900Y0041000D03*
X0035900Y0037900D03*
X0035900Y0034700D03*
X0035900Y0031600D03*
X0035900Y0028400D03*
X0035900Y0025300D03*
X0081100Y0025300D03*
X0081100Y0028400D03*
X0081100Y0031600D03*
X0081100Y0034700D03*
X0081100Y0037900D03*
X0081100Y0041000D03*
X0081100Y0044100D03*
X0081100Y0047300D03*
X0081100Y0050400D03*
X0081100Y0053600D03*
X0081100Y0056700D03*
D14*
X0074200Y0063600D03*
X0071100Y0063600D03*
X0067900Y0063600D03*
X0064800Y0063600D03*
X0061600Y0063600D03*
X0058500Y0063600D03*
X0055400Y0063600D03*
X0052200Y0063600D03*
X0049100Y0063600D03*
X0045900Y0063600D03*
X0042800Y0063600D03*
X0042800Y0018400D03*
X0045900Y0018400D03*
X0049100Y0018400D03*
X0052200Y0018400D03*
X0055400Y0018400D03*
X0058500Y0018400D03*
X0061600Y0018400D03*
X0064800Y0018400D03*
X0067900Y0018400D03*
X0071100Y0018400D03*
X0074200Y0018400D03*
D15*
X0016846Y0028500D03*
X0010154Y0028500D03*
X0010154Y0038500D03*
X0016846Y0038500D03*
D16*
X0103500Y0034346D03*
X0103500Y0027654D03*
X0118500Y0027654D03*
X0118500Y0034346D03*
X0103500Y0042654D03*
X0103500Y0049346D03*
D17*
X0104228Y0061000D03*
X0107772Y0061000D03*
D18*
X0133000Y0056000D02*
X0139000Y0056000D01*
X0139000Y0046000D02*
X0133000Y0046000D01*
X0133000Y0036000D02*
X0139000Y0036000D01*
D19*
X0116000Y0006000D03*
X0006000Y0076000D03*
D20*
X0006000Y0006000D03*
X0016000Y0006000D03*
X0026000Y0006000D03*
X0036000Y0006000D03*
X0046000Y0006000D03*
X0056000Y0006000D03*
X0066000Y0006000D03*
X0076000Y0006000D03*
X0086000Y0006000D03*
X0096000Y0006000D03*
X0106000Y0006000D03*
X0126000Y0006000D03*
X0136000Y0006000D03*
X0136000Y0076000D03*
X0126000Y0076000D03*
X0116000Y0076000D03*
X0106000Y0076000D03*
X0096000Y0076000D03*
X0086000Y0076000D03*
X0076000Y0076000D03*
X0066000Y0076000D03*
X0056000Y0076000D03*
X0046000Y0076000D03*
X0036000Y0076000D03*
X0026000Y0076000D03*
X0016000Y0076000D03*
D21*
X0021300Y0055950D03*
X0027250Y0047550D03*
X0040900Y0044400D03*
X0061550Y0042650D03*
X0074500Y0054200D03*
X0057700Y0057700D03*
X0087450Y0068550D03*
X0096900Y0061200D03*
X0117900Y0053850D03*
X0099700Y0031100D03*
X0094100Y0025850D03*
X0074500Y0030050D03*
X0058750Y0023400D03*
X0064000Y0013250D03*
X0113000Y0016400D03*
M02*
