G75*
%MOIN*%
%OFA0B0*%
%FSLAX25Y25*%
%IPPOS*%
%LPD*%
%AMOC8*
5,1,8,0,0,1.08239X$1,22.5*
%
%ADD10C,0.00200*%
%ADD11C,0.00400*%
%ADD12C,0.02200*%
%ADD13C,0.00100*%
%ADD14C,0.00600*%
D10*
X0072568Y0048967D02*
X0072568Y0049701D01*
X0073302Y0049701D01*
X0074036Y0050435D02*
X0074036Y0048967D01*
X0073669Y0048600D01*
X0072935Y0048600D01*
X0072568Y0048967D01*
X0072568Y0050435D02*
X0072935Y0050802D01*
X0073669Y0050802D01*
X0074036Y0050435D01*
X0074778Y0050802D02*
X0076246Y0050802D01*
X0076246Y0048600D01*
X0074778Y0048600D01*
X0075512Y0049701D02*
X0076246Y0049701D01*
X0076988Y0049701D02*
X0077355Y0049334D01*
X0078456Y0049334D01*
X0078456Y0048600D02*
X0078456Y0050802D01*
X0077355Y0050802D01*
X0076988Y0050435D01*
X0076988Y0049701D01*
X0077722Y0049334D02*
X0076988Y0048600D01*
X0081407Y0049334D02*
X0081407Y0050802D01*
X0081407Y0049334D02*
X0082141Y0048600D01*
X0082875Y0049334D01*
X0082875Y0050802D01*
X0083617Y0050435D02*
X0083617Y0050068D01*
X0083984Y0049701D01*
X0083617Y0049334D01*
X0083617Y0048967D01*
X0083984Y0048600D01*
X0084718Y0048600D01*
X0085085Y0048967D01*
X0085823Y0048967D02*
X0085823Y0048600D01*
X0086190Y0048600D01*
X0086190Y0048967D01*
X0085823Y0048967D01*
X0086932Y0048967D02*
X0086932Y0049334D01*
X0087299Y0049701D01*
X0087666Y0049701D01*
X0087299Y0049701D02*
X0086932Y0050068D01*
X0086932Y0050435D01*
X0087299Y0050802D01*
X0088033Y0050802D01*
X0088400Y0050435D01*
X0088400Y0048967D02*
X0088033Y0048600D01*
X0087299Y0048600D01*
X0086932Y0048967D01*
X0085085Y0050435D02*
X0084718Y0050802D01*
X0083984Y0050802D01*
X0083617Y0050435D01*
X0083984Y0049701D02*
X0084351Y0049701D01*
X0103383Y0049701D02*
X0103383Y0048967D01*
X0103750Y0048600D01*
X0104484Y0048600D01*
X0104851Y0048967D01*
X0104851Y0050435D01*
X0104484Y0050802D01*
X0103750Y0050802D01*
X0103383Y0050435D01*
X0103383Y0049701D02*
X0104117Y0049701D01*
X0105593Y0050802D02*
X0107060Y0050802D01*
X0107060Y0048600D01*
X0105593Y0048600D01*
X0106327Y0049701D02*
X0107060Y0049701D01*
X0107802Y0049701D02*
X0108169Y0049334D01*
X0109270Y0049334D01*
X0108536Y0049334D02*
X0107802Y0048600D01*
X0107802Y0049701D02*
X0107802Y0050435D01*
X0108169Y0050802D01*
X0109270Y0050802D01*
X0109270Y0048600D01*
X0112222Y0049334D02*
X0112956Y0048600D01*
X0113690Y0049334D01*
X0113690Y0050802D01*
X0114432Y0050802D02*
X0115900Y0050802D01*
X0115900Y0049701D01*
X0115166Y0050068D01*
X0114799Y0050068D01*
X0114432Y0049701D01*
X0114432Y0048967D01*
X0114799Y0048600D01*
X0115533Y0048600D01*
X0115900Y0048967D01*
X0112222Y0049334D02*
X0112222Y0050802D01*
D11*
X0015503Y0018700D02*
X0013201Y0018700D01*
X0015503Y0018700D02*
X0016271Y0019467D01*
X0016271Y0021002D01*
X0015503Y0021769D01*
X0013201Y0021769D01*
X0017805Y0021769D02*
X0020107Y0021769D01*
X0020874Y0021002D01*
X0020874Y0019467D01*
X0020107Y0018700D01*
X0017805Y0018700D01*
X0022409Y0018700D02*
X0023176Y0018700D01*
X0023176Y0019467D01*
X0022409Y0019467D01*
X0022409Y0018700D01*
X0024711Y0018700D02*
X0026246Y0020235D01*
X0025478Y0020235D02*
X0027780Y0020235D01*
X0030082Y0019467D02*
X0030082Y0023304D01*
X0029315Y0023304D02*
X0030850Y0023304D01*
X0027780Y0023304D02*
X0025478Y0023304D01*
X0024711Y0022537D01*
X0024711Y0021002D01*
X0025478Y0020235D01*
X0027780Y0018700D02*
X0027780Y0023304D01*
X0024167Y0026200D02*
X0022632Y0029269D01*
X0021097Y0029269D02*
X0019563Y0030804D01*
X0019563Y0026200D01*
X0021097Y0026200D02*
X0018028Y0026200D01*
X0016493Y0026200D02*
X0016493Y0026967D01*
X0015726Y0026967D01*
X0015726Y0026200D01*
X0016493Y0026200D01*
X0014191Y0026967D02*
X0013424Y0026200D01*
X0011890Y0026200D01*
X0011122Y0026967D01*
X0011122Y0030037D01*
X0014191Y0026967D01*
X0014191Y0030037D01*
X0013424Y0030804D01*
X0011890Y0030804D01*
X0011122Y0030037D01*
X0008820Y0029269D02*
X0007286Y0029269D01*
X0006518Y0028502D01*
X0006518Y0026200D01*
X0008820Y0026200D01*
X0009588Y0026967D01*
X0008820Y0027735D01*
X0006518Y0027735D01*
X0024167Y0026200D02*
X0025701Y0029269D01*
X0031840Y0028502D02*
X0031840Y0026967D01*
X0032607Y0026200D01*
X0034142Y0026200D01*
X0034909Y0026967D01*
X0034909Y0028502D01*
X0034142Y0029269D01*
X0032607Y0029269D01*
X0031840Y0028502D01*
X0036444Y0028502D02*
X0036444Y0026200D01*
X0039513Y0026200D02*
X0039513Y0029269D01*
X0037211Y0029269D01*
X0036444Y0028502D01*
X0041048Y0026200D02*
X0042582Y0026200D01*
X0041815Y0026200D02*
X0041815Y0029269D01*
X0042582Y0029269D01*
X0044117Y0029269D02*
X0044117Y0026200D01*
X0046419Y0026200D01*
X0047186Y0026967D01*
X0047186Y0029269D01*
X0049488Y0029269D02*
X0049488Y0026200D01*
X0048721Y0026200D02*
X0050256Y0026200D01*
X0051790Y0026200D02*
X0054092Y0027735D01*
X0051790Y0029269D01*
X0050256Y0029269D02*
X0049488Y0029269D01*
X0049488Y0030804D02*
X0049488Y0031571D01*
X0054092Y0030804D02*
X0054092Y0026200D01*
X0055627Y0026200D02*
X0057929Y0026200D01*
X0058696Y0026967D01*
X0057929Y0027735D01*
X0055627Y0027735D01*
X0055627Y0028502D02*
X0055627Y0026200D01*
X0055627Y0028502D02*
X0056394Y0029269D01*
X0057929Y0029269D01*
X0060231Y0030804D02*
X0063300Y0030804D01*
X0061765Y0030804D02*
X0061765Y0026200D01*
X0050800Y0023304D02*
X0050800Y0018700D01*
X0048498Y0018700D01*
X0047731Y0019467D01*
X0047731Y0021002D01*
X0048498Y0021769D01*
X0050800Y0021769D01*
X0046196Y0021769D02*
X0046196Y0019467D01*
X0045429Y0018700D01*
X0043127Y0018700D01*
X0043127Y0017933D02*
X0043894Y0017165D01*
X0044661Y0017165D01*
X0043127Y0017933D02*
X0043127Y0021769D01*
X0036988Y0020235D02*
X0034686Y0020235D01*
X0033919Y0021002D01*
X0033919Y0022537D01*
X0034686Y0023304D01*
X0036988Y0023304D01*
X0036988Y0018700D01*
X0032384Y0019467D02*
X0031617Y0018700D01*
X0030850Y0018700D01*
X0030082Y0019467D01*
X0041815Y0030804D02*
X0041815Y0031571D01*
D12*
X0056000Y0038380D02*
X0056000Y0038620D01*
X0056000Y0053380D02*
X0056000Y0053620D01*
X0091000Y0021120D02*
X0091000Y0020880D01*
D13*
X0089200Y0024050D02*
X0088699Y0024050D01*
X0088449Y0024300D01*
X0087977Y0024801D02*
X0086976Y0024801D01*
X0087226Y0025551D02*
X0087226Y0024050D01*
X0087977Y0024801D02*
X0087226Y0025551D01*
X0088449Y0025301D02*
X0088699Y0025551D01*
X0089200Y0025551D01*
X0089450Y0025301D01*
X0089450Y0024300D01*
X0089200Y0024050D01*
X0056950Y0041800D02*
X0056700Y0041550D01*
X0056199Y0041550D01*
X0055949Y0041800D01*
X0055477Y0041550D02*
X0054476Y0041550D01*
X0055477Y0041550D02*
X0054476Y0042551D01*
X0054476Y0042801D01*
X0054726Y0043051D01*
X0055227Y0043051D01*
X0055477Y0042801D01*
X0055949Y0042801D02*
X0056199Y0043051D01*
X0056700Y0043051D01*
X0056950Y0042801D01*
X0056950Y0041800D01*
X0056700Y0049050D02*
X0056199Y0049050D01*
X0055949Y0049300D01*
X0055477Y0049300D02*
X0055227Y0049050D01*
X0054726Y0049050D01*
X0054476Y0049300D01*
X0054476Y0049550D01*
X0054726Y0049801D01*
X0054976Y0049801D01*
X0054726Y0049801D02*
X0054476Y0050051D01*
X0054476Y0050301D01*
X0054726Y0050551D01*
X0055227Y0050551D01*
X0055477Y0050301D01*
X0055949Y0050301D02*
X0056199Y0050551D01*
X0056700Y0050551D01*
X0056950Y0050301D01*
X0056950Y0049300D01*
X0056700Y0049050D01*
D14*
X0068701Y0055307D02*
X0068701Y0041685D01*
X0093299Y0041685D01*
X0093299Y0055307D01*
X0068701Y0055307D01*
X0098701Y0055307D02*
X0098701Y0041685D01*
X0123299Y0041685D01*
X0123299Y0055307D01*
X0098701Y0055307D01*
M02*
