G75*
%MOIN*%
%OFA0B0*%
%FSLAX25Y25*%
%IPPOS*%
%LPD*%
%AMOC8*
5,1,8,0,0,1.08239X$1,22.5*
%
%ADD10C,0.00200*%
%ADD11C,0.00800*%
%ADD12C,0.00500*%
%ADD13C,0.00100*%
%ADD14C,0.00400*%
%ADD15C,0.00600*%
%ADD16C,0.00300*%
%ADD17R,0.01800X0.03000*%
%ADD18R,0.03000X0.01800*%
%ADD19C,0.02000*%
%ADD20R,0.03000X0.42000*%
%ADD21R,0.02000X0.07500*%
%ADD22R,0.02000X0.03000*%
D10*
X0004334Y0011100D02*
X0004334Y0013302D01*
X0003600Y0013302D02*
X0005068Y0013302D01*
X0005810Y0013302D02*
X0007278Y0011100D01*
X0005810Y0011100D02*
X0007278Y0013302D01*
X0013600Y0013302D02*
X0013600Y0011100D01*
X0013600Y0011834D02*
X0014701Y0011834D01*
X0015068Y0012201D01*
X0015068Y0012935D01*
X0014701Y0013302D01*
X0013600Y0013302D01*
X0015810Y0013302D02*
X0017278Y0011100D01*
X0015810Y0011100D02*
X0017278Y0013302D01*
X0015068Y0011100D02*
X0014334Y0011834D01*
X0023600Y0011467D02*
X0023967Y0011100D01*
X0024701Y0011100D01*
X0025068Y0011467D01*
X0025068Y0012201D01*
X0024334Y0012201D01*
X0025068Y0012935D02*
X0024701Y0013302D01*
X0023967Y0013302D01*
X0023600Y0012935D01*
X0023600Y0011467D01*
X0025810Y0011100D02*
X0026911Y0011100D01*
X0027278Y0011467D01*
X0027278Y0012935D01*
X0026911Y0013302D01*
X0025810Y0013302D01*
X0025810Y0011100D01*
X0028020Y0011100D02*
X0029488Y0011100D01*
X0028754Y0011100D02*
X0028754Y0013302D01*
X0028020Y0012568D01*
X0033600Y0012935D02*
X0033600Y0011467D01*
X0033967Y0011100D01*
X0034701Y0011100D01*
X0035068Y0011467D01*
X0035068Y0012201D01*
X0034334Y0012201D01*
X0035068Y0012935D02*
X0034701Y0013302D01*
X0033967Y0013302D01*
X0033600Y0012935D01*
X0035810Y0013302D02*
X0036911Y0013302D01*
X0037278Y0012935D01*
X0037278Y0011467D01*
X0036911Y0011100D01*
X0035810Y0011100D01*
X0035810Y0013302D01*
X0038020Y0012935D02*
X0038387Y0013302D01*
X0039121Y0013302D01*
X0039488Y0012935D01*
X0039488Y0012568D01*
X0038020Y0011100D01*
X0039488Y0011100D01*
X0043600Y0011100D02*
X0043600Y0013302D01*
X0044701Y0013302D01*
X0045068Y0012935D01*
X0045068Y0012201D01*
X0044701Y0011834D01*
X0043600Y0011834D01*
X0045810Y0011100D02*
X0045810Y0013302D01*
X0047278Y0013302D02*
X0047278Y0011100D01*
X0046544Y0011834D01*
X0045810Y0011100D01*
X0048020Y0011100D02*
X0049488Y0011100D01*
X0048754Y0011100D02*
X0048754Y0013302D01*
X0048020Y0012568D01*
X0053600Y0013302D02*
X0053600Y0011100D01*
X0053600Y0011834D02*
X0054701Y0011834D01*
X0055068Y0012201D01*
X0055068Y0012935D01*
X0054701Y0013302D01*
X0053600Y0013302D01*
X0055810Y0013302D02*
X0055810Y0011100D01*
X0056544Y0011834D01*
X0057278Y0011100D01*
X0057278Y0013302D01*
X0058020Y0012935D02*
X0058387Y0013302D01*
X0059121Y0013302D01*
X0059488Y0012935D01*
X0059488Y0012568D01*
X0058020Y0011100D01*
X0059488Y0011100D01*
X0063600Y0011100D02*
X0063600Y0013302D01*
X0064701Y0013302D01*
X0065068Y0012935D01*
X0065068Y0012201D01*
X0064701Y0011834D01*
X0063600Y0011834D01*
X0065810Y0011100D02*
X0065810Y0013302D01*
X0067278Y0013302D02*
X0067278Y0011100D01*
X0066544Y0011834D01*
X0065810Y0011100D01*
X0068020Y0011467D02*
X0068387Y0011100D01*
X0069121Y0011100D01*
X0069488Y0011467D01*
X0069488Y0011834D01*
X0069121Y0012201D01*
X0068754Y0012201D01*
X0069121Y0012201D02*
X0069488Y0012568D01*
X0069488Y0012935D01*
X0069121Y0013302D01*
X0068387Y0013302D01*
X0068020Y0012935D01*
X0073600Y0012935D02*
X0073600Y0012568D01*
X0073967Y0012201D01*
X0074701Y0012201D01*
X0075068Y0011834D01*
X0075068Y0011467D01*
X0074701Y0011100D01*
X0073967Y0011100D01*
X0073600Y0011467D01*
X0073600Y0012935D02*
X0073967Y0013302D01*
X0074701Y0013302D01*
X0075068Y0012935D01*
X0075810Y0012935D02*
X0076177Y0013302D01*
X0076911Y0013302D01*
X0077278Y0012935D01*
X0078020Y0013302D02*
X0078020Y0011100D01*
X0079488Y0011100D01*
X0077278Y0011467D02*
X0076911Y0011100D01*
X0076177Y0011100D01*
X0075810Y0011467D01*
X0075810Y0012935D01*
X0083600Y0012935D02*
X0083600Y0012568D01*
X0083967Y0012201D01*
X0084701Y0012201D01*
X0085068Y0011834D01*
X0085068Y0011467D01*
X0084701Y0011100D01*
X0083967Y0011100D01*
X0083600Y0011467D01*
X0085810Y0011100D02*
X0086911Y0011100D01*
X0087278Y0011467D01*
X0087278Y0012935D01*
X0086911Y0013302D01*
X0085810Y0013302D01*
X0085810Y0011100D01*
X0085068Y0012935D02*
X0084701Y0013302D01*
X0083967Y0013302D01*
X0083600Y0012935D01*
X0088020Y0012568D02*
X0088020Y0011100D01*
X0088020Y0012201D02*
X0089488Y0012201D01*
X0089488Y0012568D02*
X0089488Y0011100D01*
X0089488Y0012568D02*
X0088754Y0013302D01*
X0088020Y0012568D01*
X0093600Y0012935D02*
X0093600Y0011467D01*
X0093967Y0011100D01*
X0094701Y0011100D01*
X0095068Y0011467D01*
X0095068Y0012201D01*
X0094334Y0012201D01*
X0095068Y0012935D02*
X0094701Y0013302D01*
X0093967Y0013302D01*
X0093600Y0012935D01*
X0095810Y0013302D02*
X0096911Y0013302D01*
X0097278Y0012935D01*
X0097278Y0011467D01*
X0096911Y0011100D01*
X0095810Y0011100D01*
X0095810Y0013302D01*
X0098020Y0012935D02*
X0098387Y0013302D01*
X0099121Y0013302D01*
X0099488Y0012935D01*
X0099488Y0012568D01*
X0099121Y0012201D01*
X0099488Y0011834D01*
X0099488Y0011467D01*
X0099121Y0011100D01*
X0098387Y0011100D01*
X0098020Y0011467D01*
X0098754Y0012201D02*
X0099121Y0012201D01*
X0103600Y0012935D02*
X0103600Y0011467D01*
X0103967Y0011100D01*
X0104701Y0011100D01*
X0105068Y0011467D01*
X0105068Y0012201D01*
X0104334Y0012201D01*
X0105068Y0012935D02*
X0104701Y0013302D01*
X0103967Y0013302D01*
X0103600Y0012935D01*
X0105810Y0013302D02*
X0106911Y0013302D01*
X0107278Y0012935D01*
X0107278Y0011467D01*
X0106911Y0011100D01*
X0105810Y0011100D01*
X0105810Y0013302D01*
X0108020Y0012201D02*
X0109488Y0012201D01*
X0109121Y0011100D02*
X0109121Y0013302D01*
X0108020Y0012201D01*
X0113600Y0012935D02*
X0113600Y0011467D01*
X0113967Y0011100D01*
X0114701Y0011100D01*
X0115068Y0011467D01*
X0115068Y0012201D01*
X0114334Y0012201D01*
X0115068Y0012935D02*
X0114701Y0013302D01*
X0113967Y0013302D01*
X0113600Y0012935D01*
X0115810Y0012568D02*
X0115810Y0011100D01*
X0115810Y0012201D02*
X0117278Y0012201D01*
X0117278Y0012568D02*
X0117278Y0011100D01*
X0118020Y0011467D02*
X0118020Y0011834D01*
X0118387Y0012201D01*
X0119121Y0012201D01*
X0119488Y0011834D01*
X0119488Y0011467D01*
X0119121Y0011100D01*
X0118387Y0011100D01*
X0118020Y0011467D01*
X0118387Y0012201D02*
X0118020Y0012568D01*
X0118020Y0012935D01*
X0118387Y0013302D01*
X0119121Y0013302D01*
X0119488Y0012935D01*
X0119488Y0012568D01*
X0119121Y0012201D01*
X0117278Y0012568D02*
X0116544Y0013302D01*
X0115810Y0012568D01*
X0123600Y0012201D02*
X0124334Y0012568D01*
X0124701Y0012568D01*
X0125068Y0012201D01*
X0125068Y0011467D01*
X0124701Y0011100D01*
X0123967Y0011100D01*
X0123600Y0011467D01*
X0123600Y0012201D02*
X0123600Y0013302D01*
X0125068Y0013302D01*
X0125810Y0013302D02*
X0125810Y0011834D01*
X0126544Y0011100D01*
X0127278Y0011834D01*
X0127278Y0013302D01*
X0133600Y0012935D02*
X0133967Y0013302D01*
X0134701Y0013302D01*
X0135068Y0012935D01*
X0135068Y0012568D01*
X0134701Y0012201D01*
X0135068Y0011834D01*
X0135068Y0011467D01*
X0134701Y0011100D01*
X0133967Y0011100D01*
X0133600Y0011467D01*
X0134334Y0012201D02*
X0134701Y0012201D01*
X0135810Y0011467D02*
X0136177Y0011467D01*
X0136177Y0011100D01*
X0135810Y0011100D01*
X0135810Y0011467D01*
X0136915Y0011467D02*
X0137282Y0011100D01*
X0138016Y0011100D01*
X0138383Y0011467D01*
X0138383Y0011834D01*
X0138016Y0012201D01*
X0137649Y0012201D01*
X0138016Y0012201D02*
X0138383Y0012568D01*
X0138383Y0012935D01*
X0138016Y0013302D01*
X0137282Y0013302D01*
X0136915Y0012935D01*
X0069957Y0038967D02*
X0069590Y0038600D01*
X0068489Y0038600D01*
X0068489Y0037866D02*
X0068489Y0040068D01*
X0069590Y0040068D01*
X0069957Y0039701D01*
X0069957Y0038967D01*
X0067747Y0039701D02*
X0066279Y0039701D01*
X0067380Y0040802D01*
X0067380Y0038600D01*
X0065537Y0038967D02*
X0065170Y0038600D01*
X0064436Y0038600D01*
X0064069Y0038967D01*
X0064069Y0039334D01*
X0064436Y0039701D01*
X0065170Y0039701D01*
X0065537Y0039334D01*
X0065537Y0038967D01*
X0065170Y0039701D02*
X0065537Y0040068D01*
X0065537Y0040435D01*
X0065170Y0040802D01*
X0064436Y0040802D01*
X0064069Y0040435D01*
X0064069Y0040068D01*
X0064436Y0039701D01*
X0063327Y0040068D02*
X0063327Y0040435D01*
X0062960Y0040802D01*
X0062226Y0040802D01*
X0061859Y0040435D01*
X0063327Y0040068D02*
X0061859Y0038600D01*
X0063327Y0038600D01*
X0061117Y0038600D02*
X0059649Y0038600D01*
X0060383Y0038600D02*
X0060383Y0040802D01*
X0059649Y0040068D01*
X0058907Y0040802D02*
X0057440Y0038600D01*
X0056698Y0038967D02*
X0056698Y0039701D01*
X0056331Y0040068D01*
X0055230Y0040068D01*
X0055230Y0037866D01*
X0055230Y0038600D02*
X0056331Y0038600D01*
X0056698Y0038967D01*
X0054488Y0039701D02*
X0053020Y0039701D01*
X0054121Y0040802D01*
X0054121Y0038600D01*
X0052278Y0039701D02*
X0050810Y0039701D01*
X0051911Y0040802D01*
X0051911Y0038600D01*
X0050068Y0038967D02*
X0050068Y0039334D01*
X0049701Y0039701D01*
X0048600Y0039701D01*
X0048600Y0038967D01*
X0048967Y0038600D01*
X0049701Y0038600D01*
X0050068Y0038967D01*
X0049334Y0040435D02*
X0048600Y0039701D01*
X0049334Y0040435D02*
X0050068Y0040802D01*
X0005900Y0051100D02*
X0003698Y0051100D01*
X0003698Y0052201D01*
X0004065Y0052568D01*
X0004799Y0052568D01*
X0005166Y0052201D01*
X0005166Y0051100D01*
X0005166Y0051834D02*
X0005900Y0052568D01*
X0005900Y0053310D02*
X0005900Y0054778D01*
X0005533Y0055520D02*
X0005900Y0055887D01*
X0005900Y0056621D01*
X0005533Y0056988D01*
X0005166Y0056988D01*
X0004799Y0056621D01*
X0004799Y0055887D01*
X0004432Y0055520D01*
X0004065Y0055520D01*
X0003698Y0055887D01*
X0003698Y0056621D01*
X0004065Y0056988D01*
X0004432Y0057730D02*
X0003698Y0058464D01*
X0005900Y0058464D01*
X0005900Y0057730D02*
X0005900Y0059198D01*
X0003698Y0054778D02*
X0003698Y0053310D01*
X0005900Y0053310D01*
X0004799Y0053310D02*
X0004799Y0054044D01*
X0005068Y0068600D02*
X0004334Y0069334D01*
X0004701Y0069334D02*
X0003600Y0069334D01*
X0003600Y0068600D02*
X0003600Y0070802D01*
X0004701Y0070802D01*
X0005068Y0070435D01*
X0005068Y0069701D01*
X0004701Y0069334D01*
X0005810Y0068967D02*
X0006177Y0068600D01*
X0006911Y0068600D01*
X0007278Y0068967D01*
X0007278Y0069334D01*
X0006911Y0069701D01*
X0006177Y0069701D01*
X0005810Y0070068D01*
X0005810Y0070435D01*
X0006177Y0070802D01*
X0006911Y0070802D01*
X0007278Y0070435D01*
X0008020Y0070802D02*
X0009488Y0070802D01*
X0008754Y0070802D02*
X0008754Y0068600D01*
X0013600Y0068967D02*
X0013967Y0068600D01*
X0014701Y0068600D01*
X0015068Y0068967D01*
X0015068Y0069334D01*
X0014701Y0069701D01*
X0013967Y0069701D01*
X0013600Y0070068D01*
X0013600Y0070435D01*
X0013967Y0070802D01*
X0014701Y0070802D01*
X0015068Y0070435D01*
X0015810Y0070435D02*
X0015810Y0068967D01*
X0016177Y0068600D01*
X0016911Y0068600D01*
X0017278Y0068967D01*
X0018020Y0069334D02*
X0019488Y0070802D01*
X0018020Y0070802D02*
X0018020Y0068600D01*
X0018387Y0069701D02*
X0019488Y0068600D01*
X0017278Y0070435D02*
X0016911Y0070802D01*
X0016177Y0070802D01*
X0015810Y0070435D01*
X0023600Y0070802D02*
X0023600Y0068600D01*
X0025068Y0068600D02*
X0025068Y0070802D01*
X0024334Y0070068D01*
X0023600Y0070802D01*
X0025810Y0070802D02*
X0026544Y0070802D01*
X0026177Y0070802D02*
X0026177Y0068600D01*
X0025810Y0068600D02*
X0026544Y0068600D01*
X0033600Y0068600D02*
X0033600Y0070802D01*
X0034334Y0070068D01*
X0035068Y0070802D01*
X0035068Y0068600D01*
X0035810Y0068967D02*
X0036177Y0068600D01*
X0036911Y0068600D01*
X0037278Y0068967D01*
X0037278Y0070435D01*
X0036911Y0070802D01*
X0036177Y0070802D01*
X0035810Y0070435D01*
X0035810Y0068967D01*
X0043600Y0068967D02*
X0043967Y0068600D01*
X0044701Y0068600D01*
X0045068Y0068967D01*
X0045068Y0069334D01*
X0044701Y0069701D01*
X0043967Y0069701D01*
X0043600Y0070068D01*
X0043600Y0070435D01*
X0043967Y0070802D01*
X0044701Y0070802D01*
X0045068Y0070435D01*
X0045810Y0070435D02*
X0046177Y0070802D01*
X0046911Y0070802D01*
X0047278Y0070435D01*
X0046911Y0069701D02*
X0047278Y0069334D01*
X0047278Y0068967D01*
X0046911Y0068600D01*
X0046177Y0068600D01*
X0045810Y0068967D01*
X0046177Y0069701D02*
X0046911Y0069701D01*
X0046177Y0069701D02*
X0045810Y0070068D01*
X0045810Y0070435D01*
X0053600Y0070435D02*
X0053600Y0068967D01*
X0053967Y0068600D01*
X0054701Y0068600D01*
X0055068Y0068967D01*
X0055068Y0069701D01*
X0054334Y0069701D01*
X0055068Y0070435D02*
X0054701Y0070802D01*
X0053967Y0070802D01*
X0053600Y0070435D01*
X0055810Y0070068D02*
X0055810Y0068600D01*
X0057278Y0068600D02*
X0057278Y0070068D01*
X0056544Y0070802D01*
X0055810Y0070068D01*
X0055810Y0069701D02*
X0057278Y0069701D01*
X0058020Y0070068D02*
X0058754Y0070802D01*
X0058754Y0068600D01*
X0058020Y0068600D02*
X0059488Y0068600D01*
X0063600Y0068967D02*
X0063967Y0068600D01*
X0064701Y0068600D01*
X0065068Y0068967D01*
X0065068Y0069701D01*
X0064334Y0069701D01*
X0065068Y0070435D02*
X0064701Y0070802D01*
X0063967Y0070802D01*
X0063600Y0070435D01*
X0063600Y0068967D01*
X0065810Y0068600D02*
X0065810Y0070068D01*
X0066544Y0070802D01*
X0067278Y0070068D01*
X0067278Y0068600D01*
X0068020Y0068600D02*
X0069488Y0070068D01*
X0069488Y0070435D01*
X0069121Y0070802D01*
X0068387Y0070802D01*
X0068020Y0070435D01*
X0067278Y0069701D02*
X0065810Y0069701D01*
X0068020Y0068600D02*
X0069488Y0068600D01*
X0073600Y0068967D02*
X0073967Y0068600D01*
X0074701Y0068600D01*
X0075068Y0068967D01*
X0075068Y0069701D01*
X0074334Y0069701D01*
X0075068Y0070435D02*
X0074701Y0070802D01*
X0073967Y0070802D01*
X0073600Y0070435D01*
X0073600Y0068967D01*
X0075810Y0068600D02*
X0075810Y0070068D01*
X0076544Y0070802D01*
X0077278Y0070068D01*
X0077278Y0068600D01*
X0078020Y0068967D02*
X0078387Y0068600D01*
X0079121Y0068600D01*
X0079488Y0068967D01*
X0079488Y0069334D01*
X0079121Y0069701D01*
X0078754Y0069701D01*
X0079121Y0069701D02*
X0079488Y0070068D01*
X0079488Y0070435D01*
X0079121Y0070802D01*
X0078387Y0070802D01*
X0078020Y0070435D01*
X0077278Y0069701D02*
X0075810Y0069701D01*
X0083600Y0070435D02*
X0083600Y0068967D01*
X0083967Y0068600D01*
X0084701Y0068600D01*
X0085068Y0068967D01*
X0085068Y0069701D01*
X0084334Y0069701D01*
X0085068Y0070435D02*
X0084701Y0070802D01*
X0083967Y0070802D01*
X0083600Y0070435D01*
X0085810Y0070068D02*
X0086544Y0070802D01*
X0087278Y0070068D01*
X0087278Y0068600D01*
X0085810Y0068600D02*
X0085810Y0070068D01*
X0085810Y0069701D02*
X0087278Y0069701D01*
X0088020Y0069701D02*
X0089488Y0069701D01*
X0089121Y0070802D02*
X0088020Y0069701D01*
X0089121Y0068600D02*
X0089121Y0070802D01*
X0093600Y0070435D02*
X0093600Y0068967D01*
X0093967Y0068600D01*
X0094701Y0068600D01*
X0095068Y0068967D01*
X0095068Y0069701D01*
X0094334Y0069701D01*
X0095068Y0070435D02*
X0094701Y0070802D01*
X0093967Y0070802D01*
X0093600Y0070435D01*
X0095810Y0070068D02*
X0096544Y0070802D01*
X0097278Y0070068D01*
X0097278Y0068600D01*
X0098020Y0068967D02*
X0098387Y0068600D01*
X0099121Y0068600D01*
X0099488Y0068967D01*
X0099488Y0069701D01*
X0099121Y0070068D01*
X0098754Y0070068D01*
X0098020Y0069701D01*
X0098020Y0070802D01*
X0099488Y0070802D01*
X0097278Y0069701D02*
X0095810Y0069701D01*
X0095810Y0070068D02*
X0095810Y0068600D01*
X0103600Y0068967D02*
X0103967Y0068600D01*
X0104701Y0068600D01*
X0105068Y0068967D01*
X0105068Y0069701D01*
X0104334Y0069701D01*
X0105068Y0070435D02*
X0104701Y0070802D01*
X0103967Y0070802D01*
X0103600Y0070435D01*
X0103600Y0068967D01*
X0105810Y0068600D02*
X0105810Y0070802D01*
X0107278Y0068600D01*
X0107278Y0070802D01*
X0108020Y0070802D02*
X0109121Y0070802D01*
X0109488Y0070435D01*
X0109488Y0068967D01*
X0109121Y0068600D01*
X0108020Y0068600D01*
X0108020Y0070802D01*
X0113600Y0070802D02*
X0113600Y0069334D01*
X0114334Y0068600D01*
X0115068Y0069334D01*
X0115068Y0070802D01*
X0115810Y0070802D02*
X0116544Y0070802D01*
X0116177Y0070802D02*
X0116177Y0068600D01*
X0115810Y0068600D02*
X0116544Y0068600D01*
X0117283Y0068600D02*
X0117283Y0070802D01*
X0118751Y0068600D01*
X0118751Y0070802D01*
X0123600Y0070802D02*
X0123600Y0068600D01*
X0123600Y0069334D02*
X0124701Y0069334D01*
X0125068Y0069701D01*
X0125068Y0070435D01*
X0124701Y0070802D01*
X0123600Y0070802D01*
X0125810Y0070068D02*
X0126544Y0070802D01*
X0126544Y0068600D01*
X0125810Y0068600D02*
X0127278Y0068600D01*
X0133600Y0068600D02*
X0133600Y0070802D01*
X0134701Y0070802D01*
X0135068Y0070435D01*
X0135068Y0069701D01*
X0134701Y0069334D01*
X0133600Y0069334D01*
X0135810Y0068600D02*
X0137278Y0070068D01*
X0137278Y0070435D01*
X0136911Y0070802D01*
X0136177Y0070802D01*
X0135810Y0070435D01*
X0135810Y0068600D02*
X0137278Y0068600D01*
D11*
X0123224Y0063343D02*
X0123224Y0057437D01*
X0113776Y0057437D02*
X0113776Y0063343D01*
X0123224Y0063343D01*
X0109150Y0064937D02*
X0102850Y0064937D01*
X0102850Y0064938D02*
X0102791Y0064924D01*
X0102733Y0064907D01*
X0102676Y0064886D01*
X0102620Y0064862D01*
X0102566Y0064834D01*
X0102514Y0064804D01*
X0102463Y0064770D01*
X0102415Y0064733D01*
X0102369Y0064694D01*
X0102326Y0064651D01*
X0102285Y0064607D01*
X0102247Y0064559D01*
X0102212Y0064510D01*
X0102180Y0064458D01*
X0102151Y0064405D01*
X0102125Y0064350D01*
X0102103Y0064294D01*
X0102084Y0064236D01*
X0102068Y0064177D01*
X0102057Y0064118D01*
X0102048Y0064058D01*
X0102044Y0063997D01*
X0102043Y0063937D01*
X0102046Y0063876D01*
X0102052Y0063816D01*
X0102062Y0063756D01*
X0109150Y0064938D02*
X0109209Y0064924D01*
X0109267Y0064907D01*
X0109324Y0064886D01*
X0109380Y0064862D01*
X0109434Y0064834D01*
X0109486Y0064804D01*
X0109537Y0064770D01*
X0109585Y0064733D01*
X0109631Y0064694D01*
X0109674Y0064651D01*
X0109715Y0064607D01*
X0109753Y0064559D01*
X0109788Y0064510D01*
X0109820Y0064458D01*
X0109849Y0064405D01*
X0109875Y0064350D01*
X0109897Y0064294D01*
X0109916Y0064236D01*
X0109932Y0064177D01*
X0109943Y0064118D01*
X0109952Y0064058D01*
X0109956Y0063997D01*
X0109957Y0063937D01*
X0109954Y0063876D01*
X0109948Y0063816D01*
X0109938Y0063756D01*
X0109938Y0058244D02*
X0109948Y0058184D01*
X0109954Y0058124D01*
X0109957Y0058063D01*
X0109956Y0058003D01*
X0109952Y0057942D01*
X0109943Y0057882D01*
X0109932Y0057823D01*
X0109916Y0057764D01*
X0109897Y0057706D01*
X0109875Y0057650D01*
X0109849Y0057595D01*
X0109820Y0057542D01*
X0109788Y0057490D01*
X0109753Y0057441D01*
X0109715Y0057393D01*
X0109674Y0057349D01*
X0109631Y0057306D01*
X0109585Y0057267D01*
X0109537Y0057230D01*
X0109486Y0057196D01*
X0109434Y0057166D01*
X0109380Y0057138D01*
X0109324Y0057114D01*
X0109267Y0057093D01*
X0109209Y0057076D01*
X0109150Y0057062D01*
X0109150Y0057063D02*
X0102850Y0057063D01*
X0102850Y0057062D02*
X0102791Y0057076D01*
X0102733Y0057093D01*
X0102676Y0057114D01*
X0102620Y0057138D01*
X0102566Y0057166D01*
X0102514Y0057196D01*
X0102463Y0057230D01*
X0102415Y0057267D01*
X0102369Y0057306D01*
X0102326Y0057349D01*
X0102285Y0057393D01*
X0102247Y0057441D01*
X0102212Y0057490D01*
X0102180Y0057542D01*
X0102151Y0057595D01*
X0102125Y0057650D01*
X0102103Y0057706D01*
X0102084Y0057764D01*
X0102068Y0057823D01*
X0102057Y0057882D01*
X0102048Y0057942D01*
X0102044Y0058003D01*
X0102043Y0058063D01*
X0102046Y0058124D01*
X0102052Y0058184D01*
X0102062Y0058244D01*
X0113776Y0049563D02*
X0113776Y0045232D01*
X0115350Y0043657D01*
X0121650Y0043657D01*
X0123224Y0045232D01*
X0123224Y0049563D01*
D12*
X0122500Y0052000D02*
X0114500Y0052000D01*
D13*
X0123986Y0060854D02*
X0124236Y0060603D01*
X0125237Y0060603D01*
X0125487Y0060854D01*
X0125487Y0061354D01*
X0125237Y0061604D01*
X0125487Y0062077D02*
X0125487Y0063078D01*
X0125487Y0062577D02*
X0123986Y0062577D01*
X0124486Y0062077D01*
X0124236Y0061604D02*
X0123986Y0061354D01*
X0123986Y0060854D01*
X0100450Y0044774D02*
X0100450Y0044273D01*
X0100200Y0044023D01*
X0100450Y0043551D02*
X0099950Y0043050D01*
X0099950Y0043301D02*
X0099950Y0042550D01*
X0100450Y0042550D02*
X0098949Y0042550D01*
X0098949Y0043301D01*
X0099199Y0043551D01*
X0099699Y0043551D01*
X0099950Y0043301D01*
X0099199Y0044023D02*
X0098949Y0044273D01*
X0098949Y0044774D01*
X0099199Y0045024D01*
X0099449Y0045024D01*
X0099699Y0044774D01*
X0099950Y0045024D01*
X0100200Y0045024D01*
X0100450Y0044774D01*
X0099699Y0044774D02*
X0099699Y0044524D01*
X0121549Y0034078D02*
X0121549Y0033077D01*
X0122299Y0033077D01*
X0122049Y0033577D01*
X0122049Y0033827D01*
X0122299Y0034078D01*
X0122800Y0034078D01*
X0123050Y0033827D01*
X0123050Y0033327D01*
X0122800Y0033077D01*
X0123050Y0032604D02*
X0122550Y0032104D01*
X0122550Y0032354D02*
X0122550Y0031603D01*
X0123050Y0031603D02*
X0121549Y0031603D01*
X0121549Y0032354D01*
X0121799Y0032604D01*
X0122299Y0032604D01*
X0122550Y0032354D01*
X0107950Y0029774D02*
X0106449Y0029774D01*
X0107199Y0029023D01*
X0107199Y0030024D01*
X0107199Y0028551D02*
X0107450Y0028301D01*
X0107450Y0027550D01*
X0107950Y0027550D02*
X0106449Y0027550D01*
X0106449Y0028301D01*
X0106699Y0028551D01*
X0107199Y0028551D01*
X0107450Y0028050D02*
X0107950Y0028551D01*
X0012524Y0031550D02*
X0011523Y0031550D01*
X0011051Y0031550D02*
X0010550Y0032050D01*
X0010801Y0032050D02*
X0010050Y0032050D01*
X0010050Y0031550D02*
X0010050Y0033051D01*
X0010801Y0033051D01*
X0011051Y0032801D01*
X0011051Y0032301D01*
X0010801Y0032050D01*
X0011523Y0032551D02*
X0012024Y0033051D01*
X0012024Y0031550D01*
X0012524Y0041550D02*
X0011523Y0041550D01*
X0012524Y0042551D01*
X0012524Y0042801D01*
X0012274Y0043051D01*
X0011773Y0043051D01*
X0011523Y0042801D01*
X0011051Y0042801D02*
X0011051Y0042301D01*
X0010801Y0042050D01*
X0010050Y0042050D01*
X0010050Y0041550D02*
X0010050Y0043051D01*
X0010801Y0043051D01*
X0011051Y0042801D01*
X0010550Y0042050D02*
X0011051Y0041550D01*
D14*
X0009760Y0047339D02*
X0017240Y0047339D01*
X0017240Y0064661D02*
X0009760Y0064661D01*
D15*
X0038600Y0060900D02*
X0038600Y0059000D01*
X0040000Y0057300D02*
X0042200Y0059500D01*
X0040500Y0060900D02*
X0038600Y0060900D01*
X0055400Y0068100D02*
X0055400Y0072100D01*
X0076500Y0060900D02*
X0078400Y0060900D01*
X0078400Y0059000D01*
X0085300Y0047200D02*
X0089300Y0047200D01*
X0130500Y0066000D02*
X0142000Y0065500D01*
X0143000Y0064500D01*
X0143000Y0027500D01*
X0142000Y0026500D01*
X0130500Y0026000D01*
X0078400Y0023000D02*
X0078400Y0021100D01*
X0076500Y0021100D01*
X0068000Y0014100D02*
X0068000Y0010100D01*
X0040500Y0021100D02*
X0038600Y0021100D01*
X0038600Y0023000D01*
X0031600Y0028300D02*
X0027600Y0028300D01*
D16*
X0028350Y0058234D02*
X0031486Y0061370D01*
X0029918Y0061370D02*
X0029918Y0058234D01*
X0031486Y0058234D02*
X0028350Y0061370D01*
X0028350Y0059802D02*
X0031486Y0059802D01*
D17*
X0013500Y0038500D03*
X0013500Y0028500D03*
D18*
X0103500Y0031000D03*
X0118500Y0031000D03*
X0103500Y0046000D03*
D19*
X0140600Y0028300D03*
D20*
X0127500Y0046000D03*
D21*
X0130000Y0028750D03*
X0130000Y0063250D03*
D22*
X0130000Y0051000D03*
X0130000Y0041000D03*
M02*
