%
M48
M72
T01C0.0130
T02C0.0400
%
T01
X5875Y2340
X7450Y3005
X9410Y2585
X9970Y3110
X11300Y1640
X6400Y1325
X6155Y4265
X7450Y5420
X5770Y5770
X4090Y4440
X2725Y4755
X2130Y5595
X8745Y6855
X9690Y6120
X11790Y5385
T02
X600Y600
X1600Y600
X2600Y600
X3600Y600
X4600Y600
X5600Y600
X6600Y600
X7600Y600
X8600Y600
X9600Y600
X10600Y600
X11600Y600
X12600Y600
X13600Y600
X13600Y3600
X13600Y4600
X13600Y5600
X13600Y7600
X12600Y7600
X11600Y7600
X10600Y7600
X9600Y7600
X8600Y7600
X7600Y7600
X6600Y7600
X5600Y7600
X4600Y7600
X3600Y7600
X2600Y7600
X1600Y7600
X600Y7600
M30
