G75*
%MOIN*%
%OFA0B0*%
%FSLAX25Y25*%
%IPPOS*%
%LPD*%
%AMOC8*
5,1,8,0,0,1.08239X$1,22.5*
%
%ADD10R,0.06299X0.05512*%
%ADD11R,0.10236X0.03150*%
%ADD12R,0.05800X0.02000*%
%ADD13R,0.02000X0.05800*%
%ADD14R,0.04331X0.03937*%
%ADD15R,0.03937X0.04331*%
%ADD16R,0.02500X0.05000*%
%ADD17C,0.06000*%
%ADD18R,0.07400X0.07400*%
%ADD19C,0.07400*%
%ADD20C,0.00800*%
%ADD21C,0.02700*%
%ADD22C,0.03200*%
D10*
X0118500Y0047988D03*
X0118500Y0059012D03*
D11*
X0013500Y0061906D03*
X0013500Y0056000D03*
X0013500Y0050094D03*
D12*
X0035900Y0050400D03*
X0035900Y0047300D03*
X0035900Y0044100D03*
X0035900Y0041000D03*
X0035900Y0037900D03*
X0035900Y0034700D03*
X0035900Y0031600D03*
X0035900Y0028400D03*
X0035900Y0025300D03*
X0081100Y0025300D03*
X0081100Y0028400D03*
X0081100Y0031600D03*
X0081100Y0034700D03*
X0081100Y0037900D03*
X0081100Y0041000D03*
X0081100Y0044100D03*
X0081100Y0047300D03*
X0081100Y0050400D03*
X0081100Y0053600D03*
X0081100Y0056700D03*
X0035900Y0056700D03*
X0035900Y0053600D03*
D13*
X0042800Y0063600D03*
X0045900Y0063600D03*
X0049100Y0063600D03*
X0052200Y0063600D03*
X0055400Y0063600D03*
X0058500Y0063600D03*
X0061600Y0063600D03*
X0064800Y0063600D03*
X0067900Y0063600D03*
X0071100Y0063600D03*
X0074200Y0063600D03*
X0074200Y0018400D03*
X0071100Y0018400D03*
X0067900Y0018400D03*
X0064800Y0018400D03*
X0061600Y0018400D03*
X0058500Y0018400D03*
X0055400Y0018400D03*
X0052200Y0018400D03*
X0049100Y0018400D03*
X0045900Y0018400D03*
X0042800Y0018400D03*
D14*
X0016846Y0028500D03*
X0010154Y0028500D03*
X0010154Y0038500D03*
X0016846Y0038500D03*
D15*
X0103500Y0034346D03*
X0103500Y0027654D03*
X0118500Y0027654D03*
X0118500Y0034346D03*
X0103500Y0042654D03*
X0103500Y0049346D03*
D16*
X0104228Y0061000D03*
X0107772Y0061000D03*
D17*
X0133000Y0056000D02*
X0139000Y0056000D01*
X0139000Y0046000D02*
X0133000Y0046000D01*
X0133000Y0036000D02*
X0139000Y0036000D01*
D18*
X0116000Y0006000D03*
X0006000Y0076000D03*
D19*
X0006000Y0006000D03*
X0016000Y0006000D03*
X0026000Y0006000D03*
X0036000Y0006000D03*
X0046000Y0006000D03*
X0056000Y0006000D03*
X0066000Y0006000D03*
X0076000Y0006000D03*
X0086000Y0006000D03*
X0096000Y0006000D03*
X0106000Y0006000D03*
X0126000Y0006000D03*
X0136000Y0006000D03*
X0136000Y0076000D03*
X0126000Y0076000D03*
X0116000Y0076000D03*
X0106000Y0076000D03*
X0096000Y0076000D03*
X0086000Y0076000D03*
X0076000Y0076000D03*
X0066000Y0076000D03*
X0056000Y0076000D03*
X0046000Y0076000D03*
X0036000Y0076000D03*
X0026000Y0076000D03*
X0016000Y0076000D03*
D20*
X0016050Y0075900D01*
X0016050Y0067850D01*
X0033200Y0050700D01*
X0035650Y0050700D01*
X0035900Y0050400D01*
X0035650Y0047550D02*
X0035900Y0047300D01*
X0035650Y0047550D02*
X0027250Y0047550D01*
X0023750Y0047550D02*
X0023750Y0057000D01*
X0018850Y0061900D01*
X0013600Y0061900D01*
X0013500Y0061906D01*
X0013500Y0056000D02*
X0013600Y0055950D01*
X0021300Y0055950D01*
X0026200Y0060850D02*
X0026200Y0075900D01*
X0026000Y0076000D01*
X0036000Y0076000D02*
X0036000Y0057000D01*
X0035900Y0056700D01*
X0035650Y0053850D02*
X0033200Y0053850D01*
X0026200Y0060850D01*
X0035650Y0053850D02*
X0035900Y0053600D01*
X0023750Y0047550D02*
X0033200Y0038100D01*
X0035650Y0038100D01*
X0035900Y0037900D01*
X0035650Y0034950D02*
X0031100Y0034950D01*
X0016050Y0050000D01*
X0013600Y0050000D01*
X0013500Y0050094D01*
X0010154Y0038500D02*
X0010100Y0038450D01*
X0010100Y0034250D01*
X0006250Y0030400D01*
X0006250Y0006250D01*
X0006000Y0006000D01*
X0010450Y0011500D02*
X0015700Y0006250D01*
X0016000Y0006000D01*
X0010450Y0011500D02*
X0010450Y0028300D01*
X0010154Y0028500D01*
X0016846Y0028500D02*
X0017100Y0028650D01*
X0035650Y0028650D01*
X0035900Y0028400D01*
X0035900Y0025300D02*
X0035650Y0025150D01*
X0035650Y0015700D01*
X0026200Y0006250D01*
X0026000Y0006000D01*
X0036000Y0006000D02*
X0036000Y0006250D01*
X0042650Y0012900D01*
X0042650Y0018150D01*
X0042800Y0018400D01*
X0045900Y0018400D02*
X0046150Y0018150D01*
X0046150Y0006250D01*
X0046000Y0006000D01*
X0049300Y0012900D02*
X0055950Y0006250D01*
X0056000Y0006000D01*
X0057350Y0010800D02*
X0061200Y0010800D01*
X0066000Y0006000D01*
X0074500Y0006250D02*
X0075900Y0006250D01*
X0076000Y0006000D01*
X0074500Y0006250D02*
X0065050Y0015700D01*
X0065050Y0018150D01*
X0064800Y0018400D01*
X0061900Y0018500D02*
X0061600Y0018400D01*
X0061900Y0018500D02*
X0061900Y0024100D01*
X0061550Y0024100D01*
X0042825Y0042825D01*
X0041250Y0041250D01*
X0036000Y0041250D01*
X0035900Y0041000D01*
X0035900Y0044100D02*
X0036000Y0044400D01*
X0040900Y0044400D01*
X0042825Y0042825D02*
X0057700Y0057700D01*
X0058400Y0058400D01*
X0058400Y0063300D01*
X0058500Y0063600D01*
X0061550Y0063300D02*
X0061600Y0063600D01*
X0061550Y0063300D02*
X0061550Y0042650D01*
X0074500Y0054200D02*
X0078000Y0050700D01*
X0080800Y0050700D01*
X0081100Y0050400D01*
X0081100Y0047300D02*
X0081150Y0047200D01*
X0083600Y0047200D01*
X0097250Y0033550D01*
X0097250Y0024800D01*
X0115800Y0006250D01*
X0116000Y0006000D01*
X0106000Y0006000D02*
X0106000Y0006250D01*
X0094100Y0018150D01*
X0074500Y0018150D01*
X0074200Y0018400D01*
X0071350Y0018150D02*
X0071100Y0018400D01*
X0071350Y0018150D02*
X0071350Y0015700D01*
X0074850Y0012200D01*
X0089900Y0012200D01*
X0095850Y0006250D01*
X0096000Y0006000D01*
X0086000Y0006000D02*
X0085700Y0006250D01*
X0081150Y0010800D01*
X0073100Y0010800D01*
X0068200Y0015700D01*
X0068200Y0018150D01*
X0067900Y0018400D01*
X0064000Y0013250D02*
X0058050Y0013250D01*
X0055600Y0015700D01*
X0055600Y0018150D01*
X0055400Y0018400D01*
X0058500Y0018400D02*
X0058750Y0018500D01*
X0058750Y0023400D01*
X0061900Y0024100D02*
X0078700Y0040900D01*
X0080800Y0040900D01*
X0081100Y0041000D01*
X0081150Y0044050D02*
X0081100Y0044100D01*
X0081150Y0044050D02*
X0083600Y0044050D01*
X0094100Y0033550D01*
X0094100Y0025850D01*
X0099700Y0031100D02*
X0100050Y0031100D01*
X0103200Y0027950D01*
X0103500Y0027654D01*
X0103550Y0027600D01*
X0118250Y0027600D01*
X0118500Y0027654D01*
X0121750Y0025150D02*
X0121750Y0034600D01*
X0118600Y0034600D01*
X0118500Y0034346D01*
X0121750Y0034600D02*
X0134350Y0034600D01*
X0135750Y0036000D01*
X0136000Y0036000D01*
X0121750Y0025150D02*
X0113000Y0016400D01*
X0103500Y0034346D02*
X0103550Y0034600D01*
X0103550Y0042650D01*
X0103500Y0042654D01*
X0103200Y0043000D01*
X0092700Y0053500D01*
X0081150Y0053500D01*
X0081100Y0053600D01*
X0081100Y0056700D02*
X0081150Y0057000D01*
X0081150Y0058750D01*
X0095850Y0073450D01*
X0095850Y0075900D01*
X0096000Y0076000D01*
X0086000Y0076000D02*
X0085700Y0075900D01*
X0074500Y0064700D01*
X0074500Y0063650D01*
X0074200Y0063600D01*
X0071350Y0063650D02*
X0071100Y0063600D01*
X0071350Y0063650D02*
X0071350Y0071350D01*
X0076000Y0076000D01*
X0067850Y0074150D02*
X0066000Y0076000D01*
X0067850Y0074150D02*
X0067850Y0063650D01*
X0067900Y0063600D01*
X0064800Y0063600D02*
X0064700Y0063650D01*
X0064700Y0067500D01*
X0056300Y0075900D01*
X0056000Y0076000D01*
X0046000Y0076000D02*
X0045800Y0075900D01*
X0043000Y0073100D01*
X0043000Y0063650D01*
X0042800Y0063600D01*
X0074500Y0055600D02*
X0074500Y0054200D01*
X0074500Y0055600D02*
X0087450Y0068550D01*
X0096900Y0061200D02*
X0103900Y0061200D01*
X0104228Y0061000D01*
X0081100Y0037900D02*
X0080800Y0037750D01*
X0078700Y0037750D01*
X0074500Y0033550D01*
X0074500Y0030050D01*
X0052450Y0018150D02*
X0052200Y0018400D01*
X0052450Y0018150D02*
X0052450Y0015700D01*
X0057350Y0010800D01*
X0049300Y0012900D02*
X0049300Y0018150D01*
X0049100Y0018400D01*
X0035900Y0031600D02*
X0035650Y0031800D01*
X0032150Y0031800D01*
X0025500Y0038450D01*
X0017100Y0038450D01*
X0016846Y0038500D01*
X0035650Y0034950D02*
X0035900Y0034700D01*
D21*
X0040900Y0044400D03*
X0027250Y0047550D03*
X0021300Y0055950D03*
X0057700Y0057700D03*
X0074500Y0054200D03*
X0061550Y0042650D03*
X0074500Y0030050D03*
X0058750Y0023400D03*
X0064000Y0013250D03*
X0094100Y0025850D03*
X0099700Y0031100D03*
X0113000Y0016400D03*
X0117900Y0053850D03*
X0096900Y0061200D03*
X0087450Y0068550D03*
D22*
X0106000Y0075900D02*
X0106000Y0076000D01*
X0106000Y0075900D02*
X0107750Y0074150D01*
X0107750Y0062600D01*
X0107772Y0061000D01*
X0108100Y0060850D01*
X0116500Y0060850D01*
X0118250Y0059100D01*
X0118500Y0059012D01*
X0119650Y0058050D01*
X0121400Y0056300D01*
X0135750Y0056300D01*
X0136000Y0056000D01*
X0117900Y0050700D02*
X0118500Y0047988D01*
X0118250Y0048250D01*
X0117200Y0049300D01*
X0103550Y0049300D01*
X0103500Y0049346D01*
X0117900Y0050700D02*
X0117900Y0053850D01*
M02*
