G75*
%MOIN*%
%OFA0B0*%
%FSLAX25Y25*%
%IPPOS*%
%LPD*%
%AMOC8*
5,1,8,0,0,1.08239X$1,22.5*
%
%ADD10R,0.08500X0.06500*%
%ADD11R,0.08500X0.15600*%
%ADD12R,0.06899X0.06112*%
%ADD13R,0.08000X0.08000*%
%ADD14OC8,0.08000*%
%ADD15C,0.08000*%
%ADD16C,0.03300*%
D10*
X0112150Y0034400D03*
X0112150Y0043400D03*
X0112150Y0052400D03*
X0162150Y0052400D03*
X0162150Y0043400D03*
X0162150Y0034400D03*
D11*
X0137350Y0043500D03*
X0087350Y0043500D03*
D12*
X0124750Y0041738D03*
X0124750Y0052762D03*
X0174750Y0052762D03*
X0174750Y0041738D03*
D13*
X0007250Y0007250D03*
X0027250Y0057250D03*
X0007250Y0077250D03*
D14*
X0007250Y0057250D03*
X0017250Y0057250D03*
X0017250Y0047250D03*
X0027250Y0047250D03*
X0007250Y0047250D03*
D15*
X0017250Y0077250D03*
X0027250Y0077250D03*
X0037250Y0077250D03*
X0047250Y0077250D03*
X0057250Y0077250D03*
X0067250Y0077250D03*
X0077250Y0077250D03*
X0087250Y0077250D03*
X0097250Y0077250D03*
X0107250Y0077250D03*
X0117250Y0077250D03*
X0127250Y0077250D03*
X0137250Y0077250D03*
X0147250Y0077250D03*
X0157250Y0077250D03*
X0167250Y0077250D03*
X0177250Y0077250D03*
X0177250Y0007250D03*
X0167250Y0007250D03*
X0157250Y0007250D03*
X0147250Y0007250D03*
X0137250Y0007250D03*
X0127250Y0007250D03*
X0117250Y0007250D03*
X0107250Y0007250D03*
X0097250Y0007250D03*
X0087250Y0007250D03*
X0077250Y0007250D03*
X0067250Y0007250D03*
X0057250Y0007250D03*
X0047250Y0007250D03*
X0037250Y0007250D03*
X0027250Y0007250D03*
X0017250Y0007250D03*
D16*
X0086050Y0031800D03*
X0095150Y0035650D03*
X0095150Y0045450D03*
X0095150Y0053500D03*
X0089900Y0058750D03*
X0078000Y0058750D03*
X0061900Y0041950D03*
M02*
