%
M48
M72
T01C0.0130
T02C0.0400
%
T01
X4570Y4060
X8200Y4170
X8640Y5050
X10400Y4280
X10290Y3620
X12710Y3510
X13590Y5820
X9630Y5930
T02
X1125Y725
X2125Y725
X3125Y725
X4125Y725
X5125Y725
X6125Y725
X7125Y725
X8125Y725
X9125Y725
X10125Y725
X11125Y725
X12125Y725
X13125Y725
X14125Y725
X15125Y725
X16125Y725
X17125Y725
X18125Y725
X18125Y7725
X17125Y7725
X16125Y7725
X15125Y7725
X14125Y7725
X13125Y7725
X12125Y7725
X11125Y7725
X10125Y7725
X9125Y7725
X8125Y7725
X7125Y7725
X6125Y7725
X5125Y7725
X4125Y7725
X3125Y7725
X2125Y7725
X1125Y7725
M30
