G75*
%MOIN*%
%OFA0B0*%
%FSLAX25Y25*%
%IPPOS*%
%LPD*%
%AMOC8*
5,1,8,0,0,1.08239X$1,22.5*
%
%ADD10R,0.08500X0.06500*%
%ADD11R,0.08500X0.15600*%
%ADD12R,0.08000X0.08000*%
%ADD13C,0.08000*%
%ADD14R,0.06112X0.06899*%
%ADD15C,0.03300*%
D10*
X0121150Y0031900D03*
X0121150Y0040900D03*
X0121150Y0049900D03*
X0159900Y0049900D03*
X0159900Y0040900D03*
X0159900Y0031900D03*
D11*
X0135100Y0041000D03*
X0096350Y0041000D03*
D12*
X0011250Y0007250D03*
X0011250Y0077250D03*
D13*
X0021250Y0077250D03*
X0031250Y0077250D03*
X0041250Y0077250D03*
X0051250Y0077250D03*
X0061250Y0077250D03*
X0071250Y0077250D03*
X0081250Y0077250D03*
X0091250Y0077250D03*
X0101250Y0077250D03*
X0111250Y0077250D03*
X0121250Y0077250D03*
X0131250Y0077250D03*
X0141250Y0077250D03*
X0151250Y0077250D03*
X0161250Y0077250D03*
X0171250Y0077250D03*
X0181250Y0077250D03*
X0181250Y0007250D03*
X0171250Y0007250D03*
X0161250Y0007250D03*
X0151250Y0007250D03*
X0141250Y0007250D03*
X0131250Y0007250D03*
X0121250Y0007250D03*
X0111250Y0007250D03*
X0101250Y0007250D03*
X0091250Y0007250D03*
X0081250Y0007250D03*
X0071250Y0007250D03*
X0061250Y0007250D03*
X0051250Y0007250D03*
X0041250Y0007250D03*
X0031250Y0007250D03*
X0021250Y0007250D03*
D14*
X0170738Y0036000D03*
X0181762Y0036000D03*
X0181762Y0048500D03*
X0170738Y0048500D03*
D15*
X0135900Y0058200D03*
X0104000Y0042800D03*
X0102900Y0036200D03*
X0082000Y0041700D03*
X0086400Y0050500D03*
X0096300Y0059300D03*
X0045700Y0040600D03*
X0127100Y0035100D03*
M02*
