G75*
%MOIN*%
%OFA0B0*%
%FSLAX25Y25*%
%IPPOS*%
%LPD*%
%AMOC8*
5,1,8,0,0,1.08239X$1,22.5*
%
%ADD10R,0.03937X0.04331*%
%ADD11R,0.05800X0.02000*%
%ADD12R,0.02000X0.05800*%
%ADD13R,0.03150X0.03150*%
%ADD14R,0.04331X0.03937*%
%ADD15R,0.07400X0.07400*%
%ADD16C,0.07400*%
%ADD17R,0.06693X0.02756*%
%ADD18C,0.01600*%
%ADD19C,0.02700*%
D10*
X0122500Y0037654D03*
X0122500Y0044346D03*
D11*
X0108850Y0045350D03*
X0108850Y0042250D03*
X0108850Y0039150D03*
X0108850Y0035950D03*
X0108850Y0032850D03*
X0108850Y0029650D03*
X0108850Y0026550D03*
X0063650Y0026550D03*
X0063650Y0029650D03*
X0063650Y0032850D03*
X0063650Y0035950D03*
X0063650Y0039150D03*
X0063650Y0042250D03*
X0063650Y0045350D03*
X0063650Y0048550D03*
X0063650Y0051650D03*
X0063650Y0054850D03*
X0063650Y0057950D03*
X0108850Y0057950D03*
X0108850Y0054850D03*
X0108850Y0051650D03*
X0108850Y0048550D03*
D12*
X0101950Y0064850D03*
X0098850Y0064850D03*
X0095650Y0064850D03*
X0092550Y0064850D03*
X0089350Y0064850D03*
X0086250Y0064850D03*
X0083150Y0064850D03*
X0079950Y0064850D03*
X0076850Y0064850D03*
X0073650Y0064850D03*
X0070550Y0064850D03*
X0070550Y0019650D03*
X0073650Y0019650D03*
X0076850Y0019650D03*
X0079950Y0019650D03*
X0083150Y0019650D03*
X0086250Y0019650D03*
X0089350Y0019650D03*
X0092550Y0019650D03*
X0095650Y0019650D03*
X0098850Y0019650D03*
X0101950Y0019650D03*
D13*
X0143297Y0034750D03*
X0149203Y0034750D03*
X0149203Y0049750D03*
X0143297Y0049750D03*
D14*
X0133750Y0046404D03*
X0133750Y0053096D03*
X0133750Y0038096D03*
X0133750Y0031404D03*
D15*
X0011250Y0007250D03*
X0011250Y0077250D03*
D16*
X0021250Y0077250D03*
X0031250Y0077250D03*
X0041250Y0077250D03*
X0051250Y0077250D03*
X0061250Y0077250D03*
X0071250Y0077250D03*
X0081250Y0077250D03*
X0091250Y0077250D03*
X0101250Y0077250D03*
X0111250Y0077250D03*
X0121250Y0077250D03*
X0131250Y0077250D03*
X0141250Y0077250D03*
X0151250Y0077250D03*
X0161250Y0077250D03*
X0171250Y0077250D03*
X0181250Y0077250D03*
X0181250Y0007250D03*
X0171250Y0007250D03*
X0161250Y0007250D03*
X0151250Y0007250D03*
X0141250Y0007250D03*
X0131250Y0007250D03*
X0121250Y0007250D03*
X0111250Y0007250D03*
X0101250Y0007250D03*
X0091250Y0007250D03*
X0081250Y0007250D03*
X0071250Y0007250D03*
X0061250Y0007250D03*
X0051250Y0007250D03*
X0041250Y0007250D03*
X0031250Y0007250D03*
X0021250Y0007250D03*
D17*
X0051250Y0035026D03*
X0051250Y0039750D03*
X0051250Y0044474D03*
D18*
X0052300Y0043900D01*
X0054500Y0043900D01*
X0058900Y0039500D01*
X0063300Y0039500D01*
X0063650Y0039150D01*
X0064400Y0041700D02*
X0063650Y0042250D01*
X0064400Y0041700D02*
X0082000Y0041700D01*
X0084750Y0044450D02*
X0089700Y0049400D01*
X0089700Y0064800D01*
X0089350Y0064850D01*
X0086400Y0064800D02*
X0086250Y0064850D01*
X0086400Y0064800D02*
X0086400Y0050500D01*
X0084200Y0045000D02*
X0084750Y0044450D01*
X0095750Y0033450D01*
X0086400Y0024100D01*
X0086400Y0019700D01*
X0086250Y0019650D01*
X0083150Y0019650D02*
X0083100Y0018600D01*
X0083100Y0008700D01*
X0082000Y0007600D01*
X0081250Y0007250D01*
X0079800Y0015300D02*
X0072100Y0007600D01*
X0071250Y0007250D01*
X0067700Y0013100D02*
X0062200Y0007600D01*
X0061250Y0007250D01*
X0060000Y0015300D02*
X0052300Y0007600D01*
X0051250Y0007250D01*
X0041300Y0007600D02*
X0041250Y0007250D01*
X0041300Y0007600D02*
X0052300Y0018600D01*
X0069900Y0018600D01*
X0070550Y0019650D01*
X0073200Y0018600D02*
X0073650Y0019650D01*
X0073200Y0018600D02*
X0073200Y0016400D01*
X0072100Y0015300D01*
X0060000Y0015300D01*
X0067700Y0013100D02*
X0073200Y0013100D01*
X0076500Y0016400D01*
X0076500Y0018600D01*
X0076850Y0019650D01*
X0079950Y0019650D02*
X0079800Y0018600D01*
X0079800Y0015300D01*
X0089350Y0019650D02*
X0089700Y0019700D01*
X0089700Y0023000D01*
X0102900Y0036200D01*
X0108850Y0035950D02*
X0109500Y0036200D01*
X0117200Y0036200D01*
X0121600Y0031800D01*
X0133700Y0031800D01*
X0133750Y0031404D01*
X0137000Y0035100D02*
X0134800Y0037300D01*
X0133750Y0038096D01*
X0131500Y0041700D02*
X0142500Y0041700D01*
X0149100Y0035100D01*
X0149203Y0034750D01*
X0150200Y0034000D01*
X0154600Y0034000D01*
X0181000Y0007600D01*
X0181250Y0007250D01*
X0151250Y0007250D02*
X0150200Y0007600D01*
X0144700Y0013100D01*
X0137000Y0013100D01*
X0117200Y0032900D01*
X0109500Y0032900D01*
X0108850Y0032850D01*
X0108850Y0029650D02*
X0109500Y0029600D01*
X0117200Y0029600D01*
X0140300Y0006500D01*
X0141250Y0007250D01*
X0131250Y0007250D02*
X0130400Y0007600D01*
X0111700Y0026300D01*
X0109500Y0026300D01*
X0108850Y0026550D01*
X0101950Y0019650D02*
X0102900Y0018600D01*
X0109500Y0018600D01*
X0120500Y0007600D01*
X0121250Y0007250D01*
X0111250Y0007250D02*
X0110600Y0007600D01*
X0105100Y0013100D01*
X0101800Y0013100D01*
X0098500Y0016400D01*
X0098500Y0018600D01*
X0098850Y0019650D01*
X0095650Y0019650D02*
X0095200Y0018600D01*
X0095200Y0013100D01*
X0100700Y0007600D01*
X0101250Y0007250D01*
X0091900Y0007600D02*
X0091250Y0007250D01*
X0091900Y0007600D02*
X0091900Y0018600D01*
X0092550Y0019650D01*
X0095750Y0033450D02*
X0101800Y0039500D01*
X0108400Y0039500D01*
X0108850Y0039150D01*
X0109500Y0039500D01*
X0110600Y0038400D01*
X0121600Y0038400D01*
X0122500Y0037654D01*
X0122700Y0037300D01*
X0124900Y0035100D01*
X0127100Y0035100D01*
X0137000Y0035100D02*
X0142500Y0035100D01*
X0143297Y0034750D01*
X0131500Y0041700D02*
X0129300Y0043900D01*
X0129300Y0054900D01*
X0131500Y0057100D01*
X0137000Y0057100D01*
X0135900Y0058200D01*
X0137000Y0057100D02*
X0142500Y0057100D01*
X0149100Y0050500D01*
X0149203Y0049750D01*
X0143297Y0049750D02*
X0142500Y0050500D01*
X0137000Y0050500D01*
X0134800Y0052700D01*
X0133750Y0053096D01*
X0135900Y0064800D02*
X0119400Y0048300D01*
X0109500Y0048300D01*
X0108850Y0048550D01*
X0108850Y0051650D02*
X0109500Y0051600D01*
X0119400Y0051600D01*
X0134800Y0067000D01*
X0151300Y0067000D01*
X0161200Y0076900D01*
X0161250Y0077250D01*
X0171100Y0076900D02*
X0171250Y0077250D01*
X0171100Y0076900D02*
X0159000Y0064800D01*
X0135900Y0064800D01*
X0133700Y0069200D02*
X0142500Y0069200D01*
X0150200Y0076900D01*
X0151250Y0077250D01*
X0141250Y0077250D02*
X0140300Y0076900D01*
X0134800Y0071400D01*
X0132600Y0071400D01*
X0119400Y0058200D01*
X0109500Y0058200D01*
X0108850Y0057950D01*
X0108850Y0054850D02*
X0109500Y0054900D01*
X0119400Y0054900D01*
X0133700Y0069200D01*
X0130400Y0076900D02*
X0119400Y0065900D01*
X0102900Y0065900D01*
X0101950Y0064850D01*
X0098850Y0064850D02*
X0098500Y0065900D01*
X0098500Y0068100D01*
X0101800Y0071400D01*
X0115000Y0071400D01*
X0120500Y0076900D01*
X0121250Y0077250D01*
X0130400Y0076900D02*
X0131250Y0077250D01*
X0101250Y0077250D02*
X0100700Y0076900D01*
X0093000Y0069200D01*
X0093000Y0065900D01*
X0092550Y0064850D01*
X0095650Y0064850D02*
X0096300Y0064800D01*
X0096300Y0059300D01*
X0083150Y0064850D02*
X0083100Y0065900D01*
X0083100Y0069200D01*
X0090800Y0076900D01*
X0091250Y0077250D01*
X0081250Y0077250D02*
X0079800Y0075800D01*
X0079800Y0065900D01*
X0079950Y0064850D01*
X0076850Y0064850D02*
X0076500Y0065900D01*
X0076500Y0072500D01*
X0072100Y0076900D01*
X0071250Y0077250D01*
X0067700Y0071400D02*
X0062200Y0076900D01*
X0061250Y0077250D01*
X0052300Y0076900D02*
X0051250Y0077250D01*
X0052300Y0076900D02*
X0063300Y0065900D01*
X0069900Y0065900D01*
X0070550Y0064850D01*
X0073200Y0065900D02*
X0073650Y0064850D01*
X0073200Y0065900D02*
X0073200Y0068100D01*
X0069900Y0071400D01*
X0067700Y0071400D01*
X0060000Y0058200D02*
X0041300Y0076900D01*
X0041250Y0077250D01*
X0031400Y0076900D02*
X0031250Y0077250D01*
X0031400Y0076900D02*
X0053400Y0054900D01*
X0063300Y0054900D01*
X0063650Y0054850D01*
X0063650Y0051650D02*
X0063300Y0051600D01*
X0046800Y0051600D01*
X0021500Y0076900D01*
X0021250Y0077250D01*
X0011250Y0077250D02*
X0040200Y0048300D01*
X0063300Y0048300D01*
X0063650Y0048550D01*
X0063650Y0045350D02*
X0064400Y0045000D01*
X0084200Y0045000D01*
X0104000Y0042800D02*
X0108400Y0042800D01*
X0108850Y0042250D01*
X0109500Y0045000D02*
X0108850Y0045350D01*
X0109500Y0045000D02*
X0121600Y0045000D01*
X0122500Y0044346D01*
X0133750Y0046404D02*
X0134800Y0046100D01*
X0151300Y0046100D01*
X0182100Y0076900D01*
X0181250Y0077250D01*
X0063650Y0057950D02*
X0063300Y0058200D01*
X0060000Y0058200D01*
X0051200Y0040600D02*
X0045700Y0040600D01*
X0051200Y0040600D02*
X0051250Y0039750D01*
X0053400Y0036200D02*
X0052300Y0035100D01*
X0051250Y0035026D01*
X0053400Y0036200D02*
X0063300Y0036200D01*
X0063650Y0035950D01*
X0063300Y0032900D02*
X0056700Y0032900D01*
X0055600Y0031800D01*
X0035800Y0031800D01*
X0011250Y0007250D01*
X0021250Y0007250D02*
X0021500Y0007600D01*
X0043500Y0029600D01*
X0063300Y0029600D01*
X0063650Y0029650D01*
X0063650Y0032850D02*
X0063300Y0032900D01*
X0063650Y0026550D02*
X0063300Y0026300D01*
X0050100Y0026300D01*
X0031400Y0007600D01*
X0031250Y0007250D01*
D19*
X0102900Y0036200D03*
X0104000Y0042800D03*
X0086400Y0050500D03*
X0082000Y0041700D03*
X0045700Y0040600D03*
X0096300Y0059300D03*
X0135900Y0058200D03*
X0127100Y0035100D03*
M02*
