G75*
%MOIN*%
%OFA0B0*%
%FSLAX25Y25*%
%IPPOS*%
%LPD*%
%AMOC8*
5,1,8,0,0,1.08239X$1,22.5*
%
%ADD10R,0.03937X0.04331*%
%ADD11R,0.05800X0.02000*%
%ADD12R,0.02000X0.05800*%
%ADD13R,0.03150X0.03150*%
%ADD14R,0.04331X0.03937*%
%ADD15R,0.06693X0.02756*%
D10*
X0122500Y0037654D03*
X0122500Y0044346D03*
D11*
X0063650Y0026550D03*
X0063650Y0029650D03*
X0063650Y0032850D03*
X0063650Y0035950D03*
X0063650Y0039150D03*
X0063650Y0042250D03*
X0063650Y0045350D03*
X0063650Y0048550D03*
X0063650Y0051650D03*
X0063650Y0054850D03*
X0063650Y0057950D03*
X0108850Y0057950D03*
X0108850Y0054850D03*
X0108850Y0051650D03*
X0108850Y0048550D03*
X0108850Y0045350D03*
X0108850Y0042250D03*
X0108850Y0039150D03*
X0108850Y0035950D03*
X0108850Y0032850D03*
X0108850Y0029650D03*
X0108850Y0026550D03*
D12*
X0101950Y0019650D03*
X0098850Y0019650D03*
X0095650Y0019650D03*
X0092550Y0019650D03*
X0089350Y0019650D03*
X0086250Y0019650D03*
X0083150Y0019650D03*
X0079950Y0019650D03*
X0076850Y0019650D03*
X0073650Y0019650D03*
X0070550Y0019650D03*
X0070550Y0064850D03*
X0073650Y0064850D03*
X0076850Y0064850D03*
X0079950Y0064850D03*
X0083150Y0064850D03*
X0086250Y0064850D03*
X0089350Y0064850D03*
X0092550Y0064850D03*
X0095650Y0064850D03*
X0098850Y0064850D03*
X0101950Y0064850D03*
D13*
X0143297Y0049750D03*
X0149203Y0049750D03*
X0149203Y0034750D03*
X0143297Y0034750D03*
D14*
X0133750Y0031404D03*
X0133750Y0038096D03*
X0133750Y0046404D03*
X0133750Y0053096D03*
D15*
X0051250Y0044474D03*
X0051250Y0039750D03*
X0051250Y0035026D03*
M02*
