G75*
%MOIN*%
%OFA0B0*%
%FSLAX25Y25*%
%IPPOS*%
%LPD*%
%AMOC8*
5,1,8,0,0,1.08239X$1,22.5*
%
%ADD10R,0.04537X0.04931*%
%ADD11R,0.06400X0.02600*%
%ADD12R,0.02600X0.06400*%
%ADD13R,0.03750X0.03750*%
%ADD14R,0.04931X0.04537*%
%ADD15R,0.08000X0.08000*%
%ADD16C,0.08000*%
%ADD17R,0.07293X0.03356*%
%ADD18C,0.03300*%
D10*
X0122500Y0037654D03*
X0122500Y0044346D03*
D11*
X0108850Y0045350D03*
X0108850Y0042250D03*
X0108850Y0039150D03*
X0108850Y0035950D03*
X0108850Y0032850D03*
X0108850Y0029650D03*
X0108850Y0026550D03*
X0063650Y0026550D03*
X0063650Y0029650D03*
X0063650Y0032850D03*
X0063650Y0035950D03*
X0063650Y0039150D03*
X0063650Y0042250D03*
X0063650Y0045350D03*
X0063650Y0048550D03*
X0063650Y0051650D03*
X0063650Y0054850D03*
X0063650Y0057950D03*
X0108850Y0057950D03*
X0108850Y0054850D03*
X0108850Y0051650D03*
X0108850Y0048550D03*
D12*
X0101950Y0064850D03*
X0098850Y0064850D03*
X0095650Y0064850D03*
X0092550Y0064850D03*
X0089350Y0064850D03*
X0086250Y0064850D03*
X0083150Y0064850D03*
X0079950Y0064850D03*
X0076850Y0064850D03*
X0073650Y0064850D03*
X0070550Y0064850D03*
X0070550Y0019650D03*
X0073650Y0019650D03*
X0076850Y0019650D03*
X0079950Y0019650D03*
X0083150Y0019650D03*
X0086250Y0019650D03*
X0089350Y0019650D03*
X0092550Y0019650D03*
X0095650Y0019650D03*
X0098850Y0019650D03*
X0101950Y0019650D03*
D13*
X0143297Y0034750D03*
X0149203Y0034750D03*
X0149203Y0049750D03*
X0143297Y0049750D03*
D14*
X0133750Y0046404D03*
X0133750Y0053096D03*
X0133750Y0038096D03*
X0133750Y0031404D03*
D15*
X0011250Y0007250D03*
X0011250Y0077250D03*
D16*
X0021250Y0077250D03*
X0031250Y0077250D03*
X0041250Y0077250D03*
X0051250Y0077250D03*
X0061250Y0077250D03*
X0071250Y0077250D03*
X0081250Y0077250D03*
X0091250Y0077250D03*
X0101250Y0077250D03*
X0111250Y0077250D03*
X0121250Y0077250D03*
X0131250Y0077250D03*
X0141250Y0077250D03*
X0151250Y0077250D03*
X0161250Y0077250D03*
X0171250Y0077250D03*
X0181250Y0077250D03*
X0181250Y0007250D03*
X0171250Y0007250D03*
X0161250Y0007250D03*
X0151250Y0007250D03*
X0141250Y0007250D03*
X0131250Y0007250D03*
X0121250Y0007250D03*
X0111250Y0007250D03*
X0101250Y0007250D03*
X0091250Y0007250D03*
X0081250Y0007250D03*
X0071250Y0007250D03*
X0061250Y0007250D03*
X0051250Y0007250D03*
X0041250Y0007250D03*
X0031250Y0007250D03*
X0021250Y0007250D03*
D17*
X0051250Y0035026D03*
X0051250Y0039750D03*
X0051250Y0044474D03*
D18*
X0045700Y0040600D03*
X0082000Y0041700D03*
X0086400Y0050500D03*
X0104000Y0042800D03*
X0102900Y0036200D03*
X0127100Y0035100D03*
X0135900Y0058200D03*
X0096300Y0059300D03*
M02*
